<?xml version="1.0" standalone="no"?>
<!DOCTYPE svg PUBLIC "-//W3C//DTD SVG 20010904//EN"
 "http://www.w3.org/TR/2001/REC-SVG-20010904/DTD/svg10.dtd">
<svg version="1.0" xmlns="http://www.w3.org/2000/svg"
 width="1280.000000pt" height="1246.000000pt" viewBox="0 0 1280.000000 1246.000000"
 preserveAspectRatio="xMidYMid meet">
<metadata>
Created by potrace 1.15, written by Peter Selinger 2001-2017
</metadata>
<g transform="translate(0.000000,1246.000000) scale(0.100000,-0.100000)"
fill="#dc1a32" stroke="none">
<path d="M6520 12440 c0 -5 8 -10 18 -10 9 0 28 -3 42 -6 24 -6 25 -6 5 9 -22
18 -65 23 -65 7z"/>
<path d="M6350 12409 c0 -5 -4 -7 -10 -4 -5 3 -10 1 -10 -5 0 -7 7 -9 16 -6 9
3 22 6 30 6 8 0 14 5 14 10 0 6 -9 10 -20 10 -11 0 -20 -5 -20 -11z"/>
<path d="M6998 12398 c-8 -4 6 -8 35 -8 26 0 47 3 47 8 0 10 -66 10 -82 0z"/>
<path d="M6550 12379 c0 -5 11 -9 25 -9 14 0 25 2 25 4 0 2 -11 6 -25 8 -14 3
-25 1 -25 -3z"/>
<path d="M7600 12359 c0 -5 9 -9 20 -9 11 0 20 2 20 4 0 2 -9 6 -20 9 -11 3
-20 1 -20 -4z"/>
<path d="M5343 12353 c9 -2 23 -2 30 0 6 3 -1 5 -18 5 -16 0 -22 -2 -12 -5z"/>
<path d="M6445 12350 c-3 -5 -16 -10 -27 -10 -27 0 -21 -5 14 -14 21 -5 26 -3
22 8 -4 9 3 16 18 19 22 4 22 4 1 6 -12 0 -25 -3 -28 -9z"/>
<path d="M5945 12340 c-3 -5 -2 -10 4 -10 5 0 13 5 16 10 3 6 2 10 -4 10 -5 0
-13 -4 -16 -10z"/>
<path d="M6710 12340 c0 -5 4 -10 9 -10 5 0 18 -3 28 -6 16 -5 16 -4 -1 10
-23 18 -36 20 -36 6z"/>
<path d="M5728 12333 c-43 -7 -33 -23 13 -23 27 0 39 4 37 12 -5 14 -14 16
-50 11z"/>
<path d="M7407 12323 c-2 -4 -3 -16 -2 -25 2 -10 -1 -18 -6 -18 -6 0 -7 -5 -4
-10 4 -7 11 -8 18 -1 7 5 29 12 50 16 33 7 55 20 46 30 -9 8 -97 16 -102 8z"/>
<path d="M5255 12310 c-18 -8 -18 -9 5 -8 14 0 39 4 55 8 l30 8 -35 0 c-19 0
-44 -3 -55 -8z"/>
<path d="M7154 12308 c-3 -4 13 -8 35 -8 23 0 41 2 41 4 0 8 -71 12 -76 4z"/>
<path d="M7757 12313 c-15 -14 -6 -41 27 -79 32 -38 35 -39 87 -35 l53 3 -70
34 -69 34 52 -4 c29 -3 67 -13 85 -22 25 -14 52 -17 113 -15 44 2 84 6 89 9
13 7 -22 20 -57 21 -15 1 -30 7 -33 14 -3 8 -18 11 -44 9 -22 -2 -70 5 -109
17 -70 21 -112 26 -124 14z"/>
<path d="M5878 12293 c7 -3 16 -2 19 1 4 3 -2 6 -13 5 -11 0 -14 -3 -6 -6z"/>
<path d="M5928 12293 c6 -2 18 -2 25 0 6 3 1 5 -13 5 -14 0 -19 -2 -12 -5z"/>
<path d="M5678 12283 c7 -3 16 -2 19 1 4 3 -2 6 -13 5 -11 0 -14 -3 -6 -6z"/>
<path d="M5068 12266 c-31 -6 -63 -17 -70 -23 -6 -7 -8 -13 -4 -13 17 0 122
33 131 41 5 5 7 8 5 8 -3 -1 -31 -7 -62 -13z"/>
<path d="M7443 12263 c9 -2 23 -2 30 0 6 3 -1 5 -18 5 -16 0 -22 -2 -12 -5z"/>
<path d="M7095 12250 c-4 -6 17 -10 57 -9 50 1 57 3 33 9 -44 11 -83 11 -90 0z"/>
<path d="M7690 12206 c26 -14 62 -25 85 -26 51 0 35 15 -30 29 -27 6 -61 13
-75 16 -16 4 -8 -3 20 -19z"/>
<path d="M7835 12160 c-7 -11 9 -11 45 0 24 8 24 8 -7 9 -17 1 -35 -3 -38 -9z"/>
<path d="M8335 12160 c3 -5 13 -10 21 -10 8 0 12 5 9 10 -3 6 -13 10 -21 10
-8 0 -12 -4 -9 -10z"/>
<path d="M8240 12131 c0 -5 19 -15 43 -21 23 -6 48 -13 55 -15 25 -9 11 13
-15 23 -48 19 -83 25 -83 13z"/>
<path d="M8050 12110 c0 -6 7 -10 15 -10 8 0 15 2 15 4 0 2 -7 6 -15 10 -8 3
-15 1 -15 -4z"/>
<path d="M8160 12105 c0 -9 85 -49 97 -47 43 9 319 -100 404 -159 14 -10 29
-16 32 -13 2 3 21 -2 41 -10 36 -15 46 -10 24 12 -22 22 21 13 140 -27 111
-38 139 -51 111 -51 -25 0 13 -20 39 -20 27 0 97 -71 80 -81 -6 -4 -1 -10 13
-15 34 -11 59 -12 59 -2 0 4 19 8 43 8 23 0 51 8 62 17 19 15 19 15 -10 8 -37
-8 -25 6 17 21 l31 10 -94 49 c-52 27 -133 70 -181 96 -48 26 -107 50 -130 54
-49 8 -45 0 10 -26 l37 -17 -60 0 c-62 1 -225 41 -307 77 -27 11 -49 28 -53
40 -7 24 -63 55 -115 64 -34 7 -35 6 -14 -11 12 -9 30 -22 40 -29 17 -11 15
-12 -11 -8 -136 21 -234 39 -267 51 -21 7 -38 11 -38 9z m1080 -375 c0 -5 -4
-10 -10 -10 -5 0 -10 5 -10 10 0 6 5 10 10 10 6 0 10 -4 10 -10z"/>
<path d="M8720 12015 c0 -5 68 -35 79 -35 8 1 -61 39 -71 40 -5 0 -8 -2 -8 -5z"/>
<path d="M8435 11980 c3 -5 11 -10 16 -10 6 0 7 5 4 10 -3 6 -11 10 -16 10 -6
0 -7 -4 -4 -10z"/>
<path d="M3695 11930 c-16 -10 -75 -34 -130 -51 -118 -38 -221 -87 -268 -129
-38 -33 -57 -40 -36 -13 8 10 -6 1 -30 -20 -24 -20 -75 -52 -113 -72 -82 -41
-424 -255 -591 -368 -92 -63 -115 -83 -102 -89 8 -5 20 -6 25 -3 6 3 10 2 10
-4 0 -13 -75 -53 -83 -44 -8 8 -58 -25 -54 -36 4 -16 -325 -291 -349 -291 -19
0 -47 -37 -34 -45 14 -9 -16 -45 -37 -45 -7 0 -18 -11 -23 -24 -9 -25 -69 -76
-89 -76 -9 0 -9 6 -1 23 6 12 -13 -3 -42 -33 -65 -68 -129 -148 -108 -135 8 5
-6 -16 -31 -46 -81 -96 -214 -262 -275 -344 -122 -162 -261 -385 -248 -398 8
-7 -35 -80 -112 -192 -34 -49 -69 -104 -78 -122 -15 -31 -15 -32 7 -36 18 -4
17 -4 -6 -6 -23 -1 -31 -8 -43 -38 -38 -97 -61 -136 -100 -173 -48 -45 -78
-122 -89 -230 -5 -50 -11 -69 -28 -82 -29 -22 -18 -30 32 -22 27 4 41 12 41
21 0 11 7 14 25 11 14 -3 25 -1 25 3 0 5 8 9 18 9 12 0 32 32 69 110 28 61 47
110 42 110 -12 0 -12 37 1 60 14 26 -4 35 -32 16 -12 -9 -32 -16 -43 -16 -16
1 -14 4 10 17 17 9 34 22 38 29 4 8 18 14 31 14 41 0 85 20 79 36 -3 10 0 12
10 8 10 -4 29 16 62 64 25 39 55 78 66 88 23 21 24 34 3 34 -13 0 -14 3 -4 15
7 8 17 12 22 9 6 -4 7 2 3 15 -5 17 -2 24 12 27 10 3 23 13 28 23 6 10 21 38
33 61 17 30 20 45 12 50 -12 7 10 32 26 29 24 -4 34 6 74 74 68 114 182 257
422 528 54 61 72 89 48 74 -5 -3 -10 3 -10 14 0 13 19 31 63 57 78 46 107 73
107 95 0 10 13 34 30 52 16 19 27 36 25 39 -5 5 378 344 542 480 290 240 586
432 813 529 41 17 83 40 93 50 10 11 22 19 27 19 6 0 10 11 10 24 0 22 10 28
113 62 61 20 124 46 138 58 14 12 71 43 127 71 56 27 102 53 102 57 0 5 -12 0
-27 -9 -25 -17 -27 -17 -20 -1 7 21 -5 25 -103 31 -36 3 -72 8 -80 11 -8 3
-28 -3 -45 -14z m-2575 -2425 l25 -14 -30 -1 c-41 0 -76 10 -69 21 8 13 46 10
74 -6z m-86 -26 c-8 -14 -21 -11 -21 5 0 8 6 12 14 9 7 -3 10 -9 7 -14z m66
-38 c0 -6 -4 -13 -10 -16 -5 -3 -10 1 -10 9 0 9 5 16 10 16 6 0 10 -4 10 -9z
m-110 -185 c0 -3 -4 -8 -10 -11 -5 -3 -10 -1 -10 4 0 6 5 11 10 11 6 0 10 -2
10 -4z"/>
<path d="M4061 11926 c-17 -9 -20 -15 -11 -21 7 -4 21 1 33 14 24 24 14 27
-22 7z"/>
<path d="M4125 11911 c-6 -11 9 -23 19 -14 9 9 7 23 -3 23 -6 0 -12 -4 -16 -9z"/>
<path d="M6460 11831 c0 -4 -11 -13 -25 -19 -26 -12 -36 -38 -11 -29 20 8 30
-35 11 -46 -8 -4 -15 -13 -15 -18 0 -6 4 -8 9 -5 10 7 25 -22 22 -41 -1 -7 3
-13 9 -13 5 0 10 7 10 15 0 8 5 15 11 15 18 0 4 -24 -19 -35 -23 -10 -29 -30
-13 -39 5 -4 11 -1 13 5 6 19 38 -3 38 -26 0 -13 3 -32 6 -42 5 -17 5 -17 -6
1 -10 15 -14 16 -21 5 -5 -8 -6 -22 -3 -32 7 -23 -11 -45 -54 -63 -43 -18 -47
-18 -32 1 8 10 9 15 2 15 -6 0 -15 -6 -19 -14 -14 -25 -77 -54 -125 -59 -64
-7 -284 -88 -272 -100 4 -4 50 -8 103 -8 109 -2 157 -10 154 -27 -2 -6 8 -14
22 -18 14 -3 25 -14 25 -23 1 -14 2 -14 14 2 12 16 14 16 20 1 3 -8 6 -30 7
-47 0 -18 5 -41 10 -52 6 -13 7 0 3 41 l-6 62 41 4 c85 8 107 -15 112 -114 3
-42 1 -71 -3 -65 -5 8 -8 4 -8 -8 0 -12 5 -26 11 -32 8 -8 8 -17 0 -31 -15
-29 -14 -52 4 -52 10 0 15 -9 14 -27 0 -16 -3 -22 -6 -15 -3 9 -10 4 -20 -15
-12 -24 -13 -45 -3 -140 6 -61 15 -124 19 -140 l8 -28 8 25 c15 50 57 130 64
125 5 -2 8 12 8 33 -1 42 45 146 71 162 16 9 16 9 0 10 -11 0 -15 5 -12 15 4
9 13 13 24 10 23 -7 59 73 38 86 -10 6 -9 9 2 14 8 3 16 17 17 31 1 34 18 44
53 34 18 -5 32 -4 39 3 9 9 22 6 54 -9 55 -27 149 -64 164 -64 19 0 36 -40 29
-72 -3 -18 -2 -27 4 -23 6 3 10 13 10 21 0 8 7 17 15 20 8 4 12 11 9 16 -4 6
4 8 17 6 18 -2 25 -10 27 -30 3 -26 22 -41 22 -17 0 7 7 8 18 4 25 -11 214
-56 218 -53 2 2 -24 25 -56 52 -85 68 -374 356 -377 375 -1 8 3 21 9 28 7 9 7
13 -1 14 -6 1 -15 3 -21 4 -5 1 -13 3 -17 4 -4 0 3 8 15 17 16 11 21 22 17 35
-4 12 2 29 14 45 12 15 21 32 21 37 0 6 11 23 25 37 58 57 106 123 100 138 -3
8 3 24 12 35 17 20 17 20 -5 14 -19 -4 -21 -3 -11 9 18 21 -24 18 -69 -5 -79
-42 -234 -111 -248 -111 -7 0 -39 -12 -70 -27 l-56 -28 -24 30 c-14 17 -55 69
-91 117 -57 74 -103 114 -103 89z m20 -66 c0 -14 -4 -25 -9 -25 -5 0 -11 11
-13 25 -4 17 -1 25 8 25 8 0 14 -11 14 -25z m555 -44 c-6 -5 -21 -11 -35 -15
-21 -5 -20 -3 5 9 35 17 42 18 30 6z m76 -29 c-12 -22 -41 -48 -41 -36 0 8 40
54 47 54 2 0 -1 -8 -6 -18z m-231 -47 c-14 -8 -34 -14 -45 -14 -15 1 -13 4 10
14 40 19 67 18 35 0z m-110 -44 c0 -5 -7 -11 -14 -14 -10 -4 -13 -1 -9 9 6 15
23 19 23 5z m315 -423 c33 -34 49 -53 35 -43 -30 24 -70 64 -89 88 -28 35 -4
15 54 -45z m-558 -121 c-2 -23 -3 -1 -3 48 0 50 1 68 3 42 2 -26 2 -67 0 -90z
m0 -149 c-3 -8 -6 -5 -6 6 -1 11 2 17 5 13 3 -3 4 -12 1 -19z m78 -27 c3 -5 1
-12 -5 -16 -5 -3 -10 1 -10 9 0 18 6 21 15 7z"/>
<path d="M7207 11829 c-9 -6 -15 -15 -11 -20 3 -5 0 -18 -7 -27 -10 -12 -7
-11 10 3 44 37 50 68 8 44z"/>
<path d="M8960 11780 c-9 -6 -1 -12 29 -20 49 -13 68 -6 26 10 -15 6 -31 12
-34 15 -4 2 -13 0 -21 -5z"/>
<path d="M9360 11732 c0 -10 65 -42 83 -42 12 1 -62 50 -75 50 -5 0 -8 -4 -8
-8z"/>
<path d="M9221 11671 c-23 -6 -22 -9 30 -42 69 -46 134 -79 154 -79 19 0 47
25 38 34 -4 3 -21 6 -39 6 -24 0 -32 4 -28 14 3 8 -13 25 -44 45 -49 31 -67
35 -111 22z"/>
<path d="M9460 11670 c0 -9 122 -70 139 -70 3 0 -22 18 -57 40 -64 41 -82 47
-82 30z"/>
<path d="M9620 11635 c7 -8 16 -12 21 -9 13 8 1 24 -18 24 -13 0 -13 -3 -3
-15z"/>
<path d="M9445 11530 c-7 -11 42 -26 53 -16 7 8 -17 26 -35 26 -6 0 -15 -4
-18 -10z"/>
<path d="M9533 11516 c-13 -6 -23 -14 -23 -18 0 -11 118 -68 122 -58 5 14 78
24 78 11 0 -7 -4 -10 -9 -7 -5 4 -21 2 -36 -4 l-27 -10 50 -35 c83 -57 182
-115 195 -115 8 0 7 4 -3 10 -11 7 -2 9 30 9 34 -1 39 -3 21 -8 -41 -11 -35
-28 23 -63 31 -18 56 -38 56 -44 0 -5 14 -23 32 -40 l32 -29 -19 30 c-17 28
-15 27 31 -12 27 -22 60 -53 73 -67 14 -14 34 -26 45 -26 20 -1 20 -2 4 -14
-19 -14 -14 -26 12 -26 30 0 190 -130 190 -155 0 -6 37 -47 83 -93 59 -59 89
-82 107 -82 21 0 28 -8 43 -50 10 -28 24 -50 32 -50 8 0 12 -6 9 -14 -7 -17
43 -15 89 3 16 6 41 11 56 11 16 0 34 7 41 15 13 16 75 21 84 6 9 -13 -17 -39
-46 -47 -20 -4 -28 -2 -28 7 -1 10 -5 9 -14 -4 -9 -12 -27 -18 -52 -17 -64 1
-72 -1 -83 -14 -15 -18 170 -215 210 -223 45 -9 55 -29 24 -49 -14 -9 -24 -23
-21 -30 3 -8 -6 -20 -22 -28 -41 -21 -342 -117 -377 -121 -44 -4 -118 -36
-281 -120 -80 -41 -173 -83 -207 -94 -115 -37 -222 -78 -276 -105 -37 -19 -57
-24 -64 -17 -7 7 0 15 24 25 l34 15 -37 1 c-51 0 -71 -9 -58 -25 8 -10 6 -15
-11 -20 -21 -7 -21 -9 -6 -20 16 -11 15 -14 -9 -30 -14 -9 -38 -18 -52 -20
-15 -2 -52 -15 -82 -29 -30 -14 -65 -26 -76 -26 -27 0 -238 -111 -273 -143
-14 -13 -46 -29 -71 -36 -25 -7 -62 -22 -83 -32 -26 -14 -42 -17 -55 -10 -12
7 -24 4 -41 -10 -24 -19 -24 -19 -45 0 -12 10 -35 25 -51 34 -17 8 -39 25 -50
38 -11 12 -14 19 -7 15 6 -4 12 -3 12 1 0 18 -103 86 -202 135 -57 28 -133 70
-169 94 -37 24 -93 56 -125 71 -55 25 -456 155 -461 149 -1 -1 51 -30 117 -65
66 -34 120 -64 120 -66 0 -2 -15 1 -32 6 -91 26 -31 -12 67 -42 35 -11 68 -27
73 -35 7 -12 161 -84 181 -84 2 0 -6 11 -19 25 -30 32 -14 32 29 1 18 -13 45
-29 61 -36 18 -7 31 -22 35 -38 8 -37 67 -79 214 -152 69 -33 138 -71 154 -82
28 -20 29 -22 11 -35 -25 -18 -84 -17 -84 2 0 10 -12 7 -47 -14 -27 -15 -83
-49 -127 -74 -43 -26 -82 -44 -87 -41 -5 3 -38 -10 -72 -30 -35 -19 -92 -41
-127 -50 -78 -18 -209 -64 -515 -184 -126 -49 -276 -104 -331 -123 -62 -19
-100 -37 -98 -44 3 -7 -24 -18 -70 -29 -41 -9 -80 -24 -87 -32 -13 -16 -46
-19 -51 -4 -1 5 -41 -6 -88 -24 -47 -18 -106 -41 -132 -50 -26 -10 -63 -28
-83 -42 -43 -29 -46 -29 -38 -7 6 16 5 16 -17 0 -27 -19 -55 -23 -45 -6 4 6
-11 1 -33 -10 -49 -25 -92 -75 -92 -106 0 -19 -7 -24 -39 -30 -22 -4 -65 -22
-97 -41 -56 -34 -102 -46 -88 -22 5 8 2 9 -12 4 -10 -4 -50 -19 -87 -33 -67
-24 -140 -57 -247 -113 -30 -16 -109 -50 -175 -76 -73 -29 -130 -58 -145 -74
-18 -19 -56 -36 -130 -59 -58 -17 -141 -46 -185 -62 -67 -26 -144 -53 -214
-75 -10 -3 -10 -8 -2 -18 19 -22 -6 -34 -152 -70 -127 -32 -177 -50 -177 -62
0 -3 5 -2 12 2 6 4 8 3 4 -4 -8 -13 -60 -20 -194 -25 -58 -2 -98 0 -90 4 19
12 -3 11 -41 -2 -22 -8 -31 -17 -31 -34 0 -14 -11 -30 -27 -40 -25 -17 -27
-17 -40 1 -12 16 -18 17 -58 6 -25 -7 -100 -43 -168 -82 -67 -38 -147 -79
-177 -89 -36 -13 -54 -25 -52 -34 3 -20 -44 -41 -177 -77 -125 -34 -204 -65
-222 -86 -6 -8 -16 -14 -21 -14 -6 0 -4 8 3 17 8 9 -2 5 -21 -9 -19 -14 -80
-49 -135 -76 -55 -28 -113 -60 -130 -71 -17 -12 -46 -21 -68 -21 -53 0 -259
-86 -331 -138 -24 -17 -116 -43 -134 -38 -22 7 -93 -20 -105 -40 -4 -8 -19
-14 -33 -14 -13 0 -41 -7 -60 -15 l-36 -15 5 33 c2 17 19 70 36 117 54 146 64
181 52 193 -6 6 -11 18 -11 27 1 12 4 11 15 -4 14 -19 15 -18 15 11 0 18 4 43
10 57 7 20 6 24 -5 19 -29 -11 -29 28 0 51 16 13 25 28 21 34 -4 8 -2 10 7 6
16 -6 14 -9 63 126 49 134 186 409 254 510 32 47 74 118 94 158 23 45 45 76
59 81 41 16 96 112 137 236 20 62 75 148 126 199 29 30 34 16 8 -24 -23 -34
-25 -42 -13 -56 12 -14 14 -14 27 3 19 25 62 110 62 122 0 7 -9 7 -26 1 -33
-13 -34 -13 -34 4 0 10 10 14 29 14 35 -1 45 5 72 45 l22 32 -31 -29 c-41 -38
-40 -24 3 48 19 32 35 60 35 62 0 2 -17 1 -37 -1 -21 -2 -41 -4 -45 -4 -10 -1
-43 -63 -40 -74 1 -5 -2 -6 -8 -2 -15 9 -123 -68 -159 -114 -39 -49 -111 -171
-111 -189 0 -10 5 -10 20 -2 17 9 20 8 20 -7 0 -27 -80 -149 -89 -135 -4 8
-22 -9 -48 -46 -22 -31 -82 -106 -133 -167 -71 -85 -103 -134 -142 -215 -88
-186 -148 -346 -163 -430 l-5 -35 14 30 14 30 1 -27 c1 -15 6 -30 11 -33 13
-8 4 -45 -28 -118 -20 -46 -29 -57 -46 -55 -17 3 -22 -7 -38 -72 -21 -93 -22
-108 -6 -92 23 23 31 12 8 -13 -12 -13 -28 -33 -34 -43 -47 -81 -49 -89 -54
-185 l-5 -97 -61 -28 c-33 -15 -81 -42 -104 -60 -24 -18 -50 -31 -58 -28 -31
12 -243 -76 -367 -152 -62 -38 -68 -47 -37 -55 11 -3 20 0 20 5 0 7 5 6 13 -1
8 -6 17 -8 20 -4 4 3 7 -2 7 -13 0 -26 46 -47 72 -33 10 5 16 14 13 20 -9 13
8 11 29 -4 17 -12 14 -16 -30 -37 -27 -13 -62 -22 -77 -21 -32 2 -110 68 -103
87 3 7 -2 15 -9 18 -12 4 -332 -96 -433 -136 -31 -12 -43 -28 -21 -28 5 0 7
-5 4 -11 -5 -7 -11 -5 -18 5 -11 13 -18 12 -62 -9 -27 -14 -55 -25 -62 -25 -7
0 -28 -8 -48 -17 -26 -13 -34 -21 -29 -35 4 -15 0 -18 -25 -18 -17 0 -31 -4
-31 -10 0 -5 -7 -10 -15 -10 -8 0 -14 6 -13 13 4 15 4 15 -182 -45 -195 -63
-267 -96 -311 -140 -18 -19 -60 -49 -91 -67 -32 -18 -58 -34 -58 -36 0 -2 14
0 30 5 32 9 39 0 15 -20 -8 -7 -15 -18 -15 -25 0 -13 -31 -26 -92 -39 -32 -7
-39 13 -8 21 11 3 20 10 20 15 0 10 -38 7 -89 -8 -22 -7 -23 -5 -18 32 3 21 7
156 10 299 6 309 43 691 93 965 l7 35 -23 -20 -22 -20 7 45 c17 109 37 149 49
98 3 -13 3 14 1 60 -3 50 0 93 7 110 l12 27 4 -38 c2 -20 8 -35 13 -31 5 3 7
32 3 69 -8 80 11 187 40 223 19 23 38 78 74 217 4 17 2 17 -17 -5 l-22 -25 6
35 c4 19 9 45 12 56 2 12 -1 25 -7 29 -8 5 -7 10 3 18 7 7 22 31 32 55 22 52
13 63 -50 58 -33 -3 -42 -9 -54 -32 -7 -16 -35 -63 -62 -105 -63 -97 -114
-219 -129 -311 -7 -40 -17 -84 -21 -97 -12 -31 -23 -198 -12 -188 4 5 13 39
20 75 12 65 12 62 8 -63 -2 -75 -10 -149 -19 -175 l-14 -45 -1 45 c-2 57 -20
35 -22 -25 0 -22 -4 -49 -9 -60 -20 -49 -20 21 -1 155 22 148 25 188 15 177
-6 -6 -15 -63 -33 -222 -5 -44 -14 -100 -20 -125 -6 -25 -11 -71 -11 -102 0
-32 -4 -58 -10 -58 -5 0 -10 -21 -11 -47 0 -30 -3 -41 -7 -30 -5 11 -12 -11
-20 -63 -7 -44 -15 -87 -18 -94 -7 -18 27 -30 39 -14 5 8 7 -18 3 -68 -4 -56
-14 -104 -34 -155 -16 -41 -32 -101 -35 -134 -3 -33 -3 -50 0 -37 5 23 23 31
23 10 0 -7 -7 -65 -17 -129 -9 -63 -13 -124 -9 -135 8 -18 8 -18 17 4 13 34
22 26 15 -13 -4 -22 1 -67 14 -121 23 -97 25 -134 9 -134 -14 0 -3 -174 12
-203 10 -17 11 -17 36 3 32 25 52 26 52 3 1 -10 4 -62 7 -117 5 -72 3 -97 -5
-92 -6 4 -11 18 -11 30 0 30 -31 105 -37 89 -3 -9 -11 -6 -26 8 l-22 20 -3
-21 c-4 -27 7 -75 15 -66 10 9 33 -15 33 -34 0 -10 4 -20 9 -22 4 -1 11 -21
15 -42 7 -36 6 -39 -9 -26 -16 13 -17 7 -14 -78 2 -51 -1 -96 -7 -102 -6 -6
-7 -40 -3 -85 4 -56 11 -81 26 -98 11 -12 23 -35 27 -51 6 -26 5 -28 -8 -17
-20 17 -20 7 -1 -23 9 -13 20 -59 25 -102 10 -84 19 -123 30 -139 4 -5 13 -39
19 -75 18 -92 39 -169 60 -215 10 -22 26 -64 35 -93 17 -52 88 -213 126 -284
11 -20 31 -73 45 -117 23 -71 31 -85 75 -122 53 -45 83 -110 73 -161 -3 -16 8
-48 31 -92 41 -77 57 -96 82 -96 16 0 16 -1 -2 -15 -18 -13 -17 -15 24 -31 37
-15 44 -23 53 -61 6 -23 16 -43 21 -43 5 0 7 -3 5 -8 -3 -4 12 -27 33 -51 l38
-44 51 17 c29 9 56 14 61 11 6 -4 10 -3 10 2 -1 16 -26 52 -68 98 -31 34 -48
46 -62 42 -15 -4 -20 0 -20 13 0 11 -5 22 -10 25 -6 4 -8 11 -5 16 9 13 -11
44 -29 44 -21 0 -21 19 -1 23 9 2 23 -5 31 -15 14 -16 14 -15 9 17 -4 19 -17
44 -31 55 -13 12 -24 25 -24 31 0 17 -93 158 -117 177 -15 12 -23 29 -23 49 0
16 -16 58 -35 92 -19 35 -35 71 -35 80 0 10 -9 29 -19 42 -11 14 -23 43 -26
66 -4 23 -16 54 -26 68 -10 14 -23 49 -29 78 -10 54 -116 270 -151 308 -19 20
-59 132 -59 164 0 18 38 -38 70 -103 14 -27 28 -51 32 -53 14 -9 9 15 -11 54
-10 20 -33 88 -50 151 -18 62 -38 128 -45 145 -7 17 -11 50 -8 73 2 23 -3 65
-11 95 -8 29 -15 71 -16 93 0 22 -10 76 -22 120 -15 58 -22 116 -24 210 -1 72
-6 147 -10 168 -4 20 -5 37 -2 37 2 0 22 7 43 16 l39 16 -19 -21 c-15 -16 3
-11 76 23 53 25 132 58 177 73 55 19 80 33 78 42 -4 24 80 73 129 77 25 2 54
9 67 15 22 12 22 12 3 -10 -11 -11 -38 -26 -60 -33 -43 -12 -74 -33 -64 -43 7
-8 164 52 181 69 28 28 189 117 202 112 8 -3 35 6 60 20 33 19 45 22 45 12 0
-8 -5 -19 -12 -26 -17 -17 -5 -15 37 5 19 9 35 22 35 28 0 6 8 12 18 13 9 1
49 5 88 10 57 5 90 16 160 54 49 25 107 56 129 67 89 47 236 110 328 140 76
26 96 36 87 46 -8 10 -4 13 16 13 18 0 22 -3 13 -9 -8 -5 -10 -9 -6 -9 12 0
68 24 142 61 42 21 75 30 110 30 28 0 61 6 75 14 l25 14 -33 7 c-45 9 -30 24
64 63 71 30 78 31 94 16 16 -15 23 -13 89 30 82 53 182 101 226 109 l30 6 -28
-12 c-35 -15 -35 -27 1 -20 34 6 30 2 -41 -41 -38 -22 -54 -37 -46 -42 6 -5
15 -1 20 8 12 20 76 57 167 96 40 17 80 37 88 46 9 8 20 13 24 10 14 -9 86 31
108 60 15 19 29 25 57 25 46 0 67 11 132 70 38 35 70 53 122 70 40 12 74 20
78 16 3 -3 31 8 61 26 30 17 64 32 76 33 42 5 182 70 240 112 32 24 66 43 75
43 9 0 31 9 49 20 40 25 60 26 41 3 -8 -9 -36 -27 -64 -39 l-50 -24 37 0 c39
0 196 74 233 109 11 11 49 27 84 36 36 9 86 27 112 41 27 13 60 24 73 24 14 0
50 11 80 24 44 20 56 22 60 10 8 -22 20 -17 72 30 60 53 109 70 179 62 37 -4
57 -2 71 9 18 14 18 14 -8 15 -61 0 -27 22 115 75 38 13 125 54 194 90 129 67
155 76 133 50 -21 -25 3 -16 39 15 18 15 39 26 47 23 8 -3 18 5 25 20 20 45
96 84 217 111 61 14 135 38 164 53 73 38 71 38 63 14 -5 -18 6 -13 79 28 46
27 112 68 146 91 36 25 82 46 114 52 42 9 52 15 49 28 -3 12 16 32 62 66 l67
49 -33 3 c-31 3 -30 5 40 43 80 43 85 45 78 26 -4 -10 3 -12 25 -9 28 4 29 3
19 -16 -14 -25 -17 -28 -60 -37 -25 -5 -32 -4 -26 5 5 8 3 11 -4 9 -7 -3 -13
-9 -13 -14 0 -6 -11 -23 -24 -38 -13 -16 -24 -35 -24 -43 0 -12 3 -12 23 1 13
8 27 12 30 8 4 -3 16 2 26 11 16 15 23 15 41 6 15 -8 25 -9 29 -2 3 6 57 25
120 43 102 29 124 40 207 100 143 104 201 142 302 198 50 28 94 51 97 51 2 0
2 -7 -2 -15 -3 -9 2 -24 10 -33 15 -16 13 -19 -31 -35 -80 -29 -235 -114 -223
-122 7 -4 53 17 104 46 61 35 105 53 132 55 54 4 95 20 95 39 0 9 46 37 125
75 135 65 135 65 135 50 0 -5 -21 -21 -47 -35 -27 -14 -37 -23 -23 -19 27 7
33 11 101 67 48 39 218 107 269 107 47 0 398 153 495 215 31 19 57 35 59 35 2
0 1 -12 -2 -27 -3 -23 19 -5 129 104 l134 132 28 -36 c15 -20 27 -46 27 -59 0
-13 -12 -32 -27 -45 l-28 -21 25 7 c45 13 140 58 140 66 0 4 -10 9 -22 11 -13
2 -23 10 -23 18 0 11 18 17 70 22 133 13 158 21 160 47 2 23 46 71 65 71 5 0
11 -14 15 -30 l7 -30 46 38 c83 67 77 64 109 46 29 -17 32 -16 126 21 53 21
95 41 92 43 -3 3 13 15 34 28 22 12 73 51 115 87 62 55 140 107 160 107 3 0 6
-12 8 -27 3 -24 8 -28 38 -31 34 -3 39 1 99 78 101 128 235 240 288 240 13 0
49 14 81 32 l57 31 -50 -52 c-27 -29 -104 -100 -170 -158 -167 -147 -156 -135
-115 -127 19 3 52 12 73 20 42 16 50 5 12 -16 -47 -25 -19 -19 83 19 56 21
115 49 130 63 15 15 55 43 90 63 34 20 62 40 62 45 0 4 -60 -25 -132 -65 -73
-40 -135 -69 -137 -63 -10 28 140 142 254 193 75 33 91 28 71 -19 l-14 -34 78
39 c80 40 110 49 76 24 -39 -30 2 -14 68 26 92 55 137 72 301 115 77 19 142
38 144 40 2 2 -20 4 -51 4 -30 0 -76 6 -102 14 -51 16 -126 60 -126 75 0 5 18
12 41 16 46 8 46 10 13 97 -10 26 -15 50 -11 54 4 5 37 -6 73 -24 35 -18 67
-32 69 -32 16 0 -1 21 -40 49 -33 24 -44 38 -40 51 4 13 -13 34 -65 80 -40 35
-68 54 -64 44 4 -13 -3 -9 -19 10 -14 16 -30 25 -36 22 -7 -4 -9 -1 -5 8 3 8
-10 31 -31 55 -28 30 -45 41 -67 41 -28 0 -124 42 -170 74 -12 9 -23 26 -25
38 -2 13 -9 28 -16 34 -7 7 -79 75 -160 153 -122 115 -154 141 -178 141 -16 0
-29 4 -29 9 0 5 8 7 19 4 12 -3 1 14 -30 47 -47 50 -51 52 -89 47 -22 -3 -38
-1 -37 4 1 6 -25 19 -58 30 -74 25 -254 112 -289 140 -14 11 -26 27 -26 34 0
13 -81 65 -143 93 -33 14 -73 14 -104 -2z m707 -416 c0 -5 -15 -10 -32 -10
-25 0 -29 3 -18 10 20 13 50 13 50 0z m-6736 -2282 c-3 -4 -17 -8 -32 -8 -20
0 -23 3 -13 9 18 11 52 10 45 -1z m3221 -488 c-27 -12 -43 -12 -25 0 8 5 22 9
30 9 10 0 8 -3 -5 -9z m-4125 -1095 c-7 -8 -20 -15 -28 -15 -13 0 -12 3 4 15
25 19 40 19 24 0z m400 -290 c-7 -9 -15 -13 -17 -11 -7 7 7 26 19 26 6 0 6 -6
-2 -15z m-260 -105 c0 -5 -9 -10 -21 -10 -11 0 -17 5 -14 10 3 6 13 10 21 10
8 0 14 -4 14 -10z m130 -60 c0 -5 -5 -10 -11 -10 -5 0 -7 5 -4 10 3 6 8 10 11
10 2 0 4 -4 4 -10z m-40 -19 c0 -17 -18 -21 -24 -6 -3 9 0 15 9 15 8 0 15 -4
15 -9z m-290 -30 c0 -5 -8 -17 -17 -26 -14 -15 -18 -15 -27 -3 -6 8 -18 13
-26 10 -9 -2 -7 2 5 12 22 17 65 22 65 7z m64 -45 c-9 -15 -19 -25 -21 -22 -3
2 3 16 13 30 9 15 19 25 21 22 3 -2 -3 -16 -13 -30z m316 24 c0 -5 -2 -10 -4
-10 -3 0 -8 5 -11 10 -3 6 -1 10 4 10 6 0 11 -4 11 -10z m-570 -34 c0 -3 -4
-8 -10 -11 -5 -3 -10 -1 -10 4 0 6 5 11 10 11 6 0 10 -2 10 -4z m120 -42 c0
-2 -7 -4 -15 -4 -8 0 -15 4 -15 10 0 5 7 7 15 4 8 -4 15 -8 15 -10z m-140 -25
c0 -6 -6 -9 -12 -6 -7 2 -21 -5 -30 -16 -10 -11 -18 -15 -18 -9 0 15 29 42 46
42 8 0 14 -5 14 -11z m-130 -93 c0 -2 -9 -6 -20 -9 -11 -3 -20 -1 -20 4 0 5 9
9 20 9 11 0 20 -2 20 -4z m-120 -16 c0 -5 -4 -10 -10 -10 -5 0 -10 5 -10 10 0
6 5 10 10 10 6 0 10 -4 10 -10z m57 -40 c-1 -20 -8 -25 -20 -14 -7 8 3 34 13
34 5 0 8 -9 7 -20z m-360 -22 c-3 -8 -6 -5 -6 6 -1 11 2 17 5 13 3 -3 4 -12 1
-19z m23 -18 c0 -5 -5 -10 -11 -10 -5 0 -7 5 -4 10 3 6 8 10 11 10 2 0 4 -4 4
-10z m-170 -36 c0 -8 5 -12 10 -9 6 4 8 10 5 15 -3 4 2 11 11 14 28 11 38 6
18 -9 -17 -13 -17 -14 -1 -15 9 0 17 -4 17 -9 0 -5 -8 -11 -17 -15 -10 -3 -23
-8 -29 -11 -7 -4 -17 8 -23 26 -14 39 -14 42 -1 34 6 -3 10 -13 10 -21z m-105
-4 c3 -5 1 -10 -4 -10 -6 0 -11 5 -11 10 0 6 2 10 4 10 3 0 8 -4 11 -10z m295
-16 c0 -8 -5 -12 -10 -9 -6 4 -8 11 -5 16 9 14 15 11 15 -7z m-433 -35 c-6
-21 6 -28 67 -43 25 -6 28 -5 23 13 -5 20 3 25 31 22 8 -1 24 5 37 13 31 20
35 20 65 -5 24 -20 24 -21 5 -32 -11 -6 -20 -9 -20 -6 -1 2 -13 -4 -27 -13
-19 -12 -29 -14 -34 -7 -4 8 -9 8 -13 1 -4 -7 -30 -8 -81 -1 -72 9 -103 26
-75 42 8 4 12 14 9 22 -4 8 -1 15 6 15 8 0 10 -8 7 -21z m-59 -50 c-12 -7 -24
-7 -35 0 -15 9 -12 10 17 10 29 0 32 -1 18 -10z m-154 -82 c-21 -12 -29 -2
-13 16 10 11 16 12 21 4 4 -7 0 -16 -8 -20z m109 16 c-7 -2 -19 -2 -25 0 -7 3
-2 5 12 5 14 0 19 -2 13 -5z m-148 -93 c-3 -5 -11 -10 -16 -10 -6 0 -7 5 -4
10 3 6 11 10 16 10 6 0 7 -4 4 -10z m-50 -80 c3 -5 2 -10 -4 -10 -5 0 -13 5
-16 10 -3 6 -2 10 4 10 5 0 13 -4 16 -10z m-845 -350 c-27 -21 -40 -25 -40
-11 0 5 12 14 28 19 39 15 40 14 12 -8z m560 -2255 c0 -8 -7 -15 -15 -15 -16
0 -20 12 -8 23 11 12 23 8 23 -8z"/>
<path d="M9875 11500 c7 -11 88 -50 103 -50 12 0 -37 31 -74 46 -22 9 -33 11
-29 4z"/>
<path d="M6977 11437 c-11 -29 -9 -43 4 -30 6 6 9 19 7 29 -3 18 -4 18 -11 1z"/>
<path d="M4029 11381 c17 -21 28 -41 25 -44 -3 -3 2 -17 11 -30 15 -24 15 -27
0 -51 -15 -23 -15 -27 -2 -32 10 -3 14 -16 12 -37 -2 -18 6 -50 18 -74 17 -34
19 -48 11 -79 -9 -36 -12 -39 -104 -75 -52 -21 -104 -38 -116 -38 -11 -1 -29
-8 -40 -16 -10 -8 -29 -15 -41 -15 -13 0 -23 -4 -23 -9 0 -5 -24 -15 -52 -21
-29 -7 -57 -15 -63 -18 -8 -5 46 -18 154 -36 13 -2 26 -7 30 -12 9 -13 34 -16
139 -19 112 -4 122 -7 122 -40 0 -21 5 -25 28 -25 15 0 34 5 42 10 12 8 10 10
-11 10 -32 0 -42 9 -28 27 13 14 69 18 69 4 0 -5 10 -11 23 -15 28 -8 15 -17
-63 -42 l-59 -19 2 -141 c2 -107 -1 -144 -11 -154 -8 -7 -11 -21 -9 -31 3 -12
-4 -26 -21 -40 l-27 -21 32 6 c29 7 31 5 26 -15 -4 -15 -2 -20 5 -15 6 4 12
-5 14 -21 l4 -28 13 30 c7 17 13 38 14 47 1 13 4 14 14 6 10 -8 12 -7 7 6 -3
9 -1 16 5 16 7 0 11 14 9 33 -1 22 6 44 20 62 12 15 22 35 22 43 0 8 11 29 24
46 13 17 26 45 30 62 5 21 13 31 23 30 9 0 26 13 37 29 14 20 28 29 41 28 15
-2 14 0 -5 7 -20 9 -27 7 -42 -12 -22 -28 -24 -11 -2 20 l15 22 46 -24 c25
-14 52 -22 60 -19 15 6 93 -25 93 -37 0 -4 12 -10 28 -13 42 -9 122 -47 122
-58 0 -6 5 -7 12 -3 6 4 8 3 5 -3 -4 -6 3 -19 14 -29 21 -18 21 -18 39 3 17
22 18 22 34 4 10 -11 27 -21 39 -24 12 -2 31 -8 42 -13 14 -6 9 5 -18 38 -20
25 -37 49 -37 55 0 12 -73 83 -85 83 -6 0 -37 29 -69 65 -47 51 -64 64 -80 59
-15 -4 -17 -3 -7 4 11 8 8 17 -15 48 -16 20 -28 46 -26 56 2 10 -3 18 -11 18
-8 0 -17 9 -20 21 -5 19 -2 20 27 15 40 -8 48 -1 34 30 -8 17 -8 27 2 39 15
18 -1 21 -30 5 -14 -7 -25 -7 -39 2 -17 10 -29 8 -73 -11 -29 -12 -59 -25 -67
-28 -9 -4 -12 -1 -9 8 3 8 21 18 40 24 20 5 44 17 54 26 19 16 56 18 85 5 25
-11 85 18 106 51 21 33 110 153 149 202 l28 34 -29 -19 c-16 -10 -33 -19 -39
-19 -12 0 -197 -78 -238 -101 -15 -8 -56 -26 -92 -39 -36 -14 -75 -30 -86 -37
-17 -11 -24 -7 -60 27 -23 22 -45 51 -51 63 -5 13 -23 29 -39 35 -17 6 -30 17
-30 25 0 7 -14 31 -31 52 -21 26 -30 46 -26 60 4 18 1 20 -33 20 -22 0 -42 5
-45 10 -3 6 -11 10 -16 10 -6 0 3 -17 20 -39z m111 -105 c0 -3 -4 -8 -10 -11
-5 -3 -10 -1 -10 4 0 6 5 11 10 11 6 0 10 -2 10 -4z m60 -226 c0 -5 -4 -10
-10 -10 -5 0 -10 5 -10 10 0 6 5 10 10 10 6 0 10 -4 10 -10z m140 -40 c0 -5
-5 -10 -11 -10 -5 0 -7 5 -4 10 3 6 8 10 11 10 2 0 4 -4 4 -10z m160 -30 c-20
-13 -40 -13 -40 0 0 6 12 10 28 10 21 0 24 -2 12 -10z m-286 -29 c3 -5 0 -14
-8 -20 -10 -9 -15 -8 -19 3 -9 22 15 37 27 17z m108 -114 c-2 -11 2 -15 13
-11 16 6 19 -4 9 -30 -4 -10 -18 -16 -40 -16 -37 0 -43 10 -19 34 8 8 15 22
15 31 0 9 6 15 13 12 6 -2 11 -11 9 -20z m-277 -14 c-15 -8 -29 -12 -33 -9 -9
10 31 34 46 28 10 -4 7 -9 -13 -19z m-155 -3 c0 -5 -5 -10 -11 -10 -5 0 -7 5
-4 10 3 6 8 10 11 10 2 0 4 -4 4 -10z m363 -47 c-7 -2 -19 -2 -25 0 -7 3 -2 5
12 5 14 0 19 -2 13 -5z"/>
<path d="M9870 11406 c0 -3 23 -18 50 -35 50 -31 72 -28 25 3 -27 18 -75 38
-75 32z"/>
<path d="M9995 11380 c19 -21 126 -90 140 -90 4 0 1 8 -6 17 -9 10 5 5 35 -12
27 -16 47 -24 45 -18 -4 9 -213 123 -227 123 -3 0 3 -9 13 -20z"/>
<path d="M8840 11284 c0 -11 4 -24 9 -29 4 -6 16 -73 25 -150 10 -77 22 -148
27 -157 12 -24 11 -28 -5 -28 -16 0 -337 -119 -349 -130 -4 -3 72 -17 169 -31
134 -18 182 -28 198 -43 14 -13 17 -20 9 -23 -16 -6 -17 -75 -1 -91 8 -8 8
-15 -2 -27 -15 -18 -5 -145 13 -145 8 0 7 -4 -1 -12 -7 -7 -12 -28 -12 -48 l1
-35 19 39 c11 21 18 42 15 45 -2 4 6 19 18 33 13 14 33 49 47 77 13 28 27 51
32 51 11 0 10 -7 -3 -33 -11 -21 -10 -21 15 2 14 14 31 39 38 58 11 31 15 33
61 33 28 0 46 -4 42 -9 -8 -14 32 -33 53 -27 10 3 49 -9 88 -28 39 -18 86 -37
105 -41 19 -4 50 -16 70 -26 35 -17 49 -16 49 3 0 5 -4 6 -10 3 -5 -3 -10 -2
-10 3 0 5 -22 32 -48 61 l-49 53 -64 -10 c-46 -7 -66 -6 -71 1 -4 7 -25 12
-47 12 -46 0 -50 4 -21 22 22 14 73 7 107 -14 15 -10 23 -11 28 -3 4 6 13 9
21 6 37 -14 14 20 -77 113 -68 70 -95 103 -85 107 8 3 17 12 20 21 5 13 -3 14
-63 8 -65 -6 -70 -5 -81 16 -12 21 -11 22 23 16 28 -4 35 -3 30 9 -6 17 8 19
25 2 8 -8 18 -9 36 0 13 6 34 8 45 5 15 -4 30 2 46 17 14 13 25 26 25 29 0 8
-101 5 -121 -4 -10 -3 -20 -2 -24 4 -3 6 -3 12 2 12 4 1 21 3 37 5 32 3 60 23
35 25 -7 0 -27 2 -43 2 -16 1 -31 8 -34 16 -4 11 6 12 52 7 86 -11 142 11 190
75 21 28 36 52 34 54 -2 2 -80 -30 -173 -71 -232 -103 -222 -100 -245 -79 -11
10 -34 19 -52 21 -44 5 -58 11 -58 24 0 8 6 8 20 0 12 -7 27 -7 36 -2 13 7 2
26 -61 103 -103 126 -105 128 -105 103z m205 -274 c-11 -5 -27 -9 -35 -9 -9 0
-8 4 5 9 11 5 27 9 35 9 9 0 8 -4 -5 -9z m62 -6 c-3 -3 -12 -4 -19 -1 -8 3 -5
6 6 6 11 1 17 -2 13 -5z m74 -35 c-16 -6 -28 -6 -35 1 -7 7 1 10 25 9 32 0 33
-1 10 -10z m-51 -8 c0 -5 -13 -11 -29 -14 -16 -3 -35 -12 -42 -19 -26 -25 -74
-36 -102 -24 -42 17 -19 33 62 44 40 6 76 13 79 16 9 9 32 7 32 -3z m-35 -321
c-3 -5 -13 -10 -21 -10 -8 0 -12 5 -9 10 3 6 13 10 21 10 8 0 12 -4 9 -10z"/>
<path d="M10210 11240 c0 -5 5 -10 11 -10 5 0 7 5 4 10 -3 6 -8 10 -11 10 -2
0 -4 -4 -4 -10z"/>
<path d="M2400 11159 c-22 -18 -22 -19 -3 -10 12 6 25 16 28 21 9 15 3 12 -25
-11z"/>
<path d="M10144 11051 c20 -22 26 -25 26 -13 0 4 -10 13 -22 21 -23 14 -23 14
-4 -8z"/>
<path d="M9330 11040 c-28 -9 -27 -11 13 -16 18 -2 27 2 27 12 0 15 -3 16 -40
4z"/>
<path d="M9571 10487 c2 -1 13 -9 24 -17 19 -14 19 -14 6 3 -7 9 -18 17 -24
17 -6 0 -8 -1 -6 -3z"/>
<path d="M11171 10236 c12 -10 60 -16 54 -6 -3 5 -18 10 -32 10 -15 0 -24 -2
-22 -4z"/>
<path d="M6130 10175 c-107 -19 -247 -39 -310 -45 -232 -23 -496 -85 -727
-171 -202 -74 -460 -209 -401 -209 18 0 0 -14 -66 -54 -64 -38 -86 -45 -66
-21 20 24 -5 19 -99 -22 -47 -20 -95 -37 -107 -39 -32 -3 -134 -54 -134 -66 0
-6 -3 -9 -6 -5 -4 3 -19 0 -35 -8 -15 -8 -35 -12 -43 -9 -11 4 -16 0 -17 -12
0 -11 -3 -14 -6 -7 -3 10 -10 10 -26 1 l-21 -11 22 -8 c17 -6 36 -2 71 15 77
40 224 48 174 10 -34 -25 6 -14 79 22 40 20 89 51 108 69 19 18 44 35 55 39
20 6 20 6 1 -9 -31 -23 -14 -27 40 -8 61 22 62 22 44 33 -13 8 -12 10 3 10 10
0 33 11 51 25 18 14 38 25 44 25 7 0 12 5 12 12 0 6 3 9 6 5 4 -3 -4 -18 -16
-34 -12 -15 -18 -29 -13 -30 5 -2 45 17 88 42 44 25 100 53 125 62 25 9 63 31
85 49 52 41 101 66 139 69 17 2 67 18 111 36 266 107 524 171 804 199 149 15
181 11 69 -9 -53 -9 -100 -19 -103 -23 -4 -3 8 -13 27 -22 25 -12 78 -16 228
-18 189 -2 240 3 240 23 0 6 -4 7 -10 4 -11 -7 -131 14 -143 25 -5 4 24 12 65
18 l73 9 -67 2 c-71 1 -85 10 -43 29 29 13 32 27 9 36 -32 12 -123 4 -314 -29z"/>
<path d="M6870 10170 c-24 -7 -23 -7 10 -13 19 -4 85 -14 145 -23 110 -16 144
-29 127 -46 -12 -12 -163 -14 -262 -4 -63 7 -73 6 -62 -5 7 -8 34 -14 60 -14
26 0 56 -5 67 -12 27 -15 274 -63 327 -63 29 0 49 7 65 22 24 22 24 22 76 4
29 -10 71 -31 95 -46 38 -25 137 -57 232 -75 32 -6 33 -6 15 8 -11 7 -50 30
-87 51 -77 43 -99 63 -79 76 20 12 -74 40 -171 50 -46 5 -108 17 -138 26 -30
9 -83 20 -117 24 -34 5 -88 16 -120 24 -77 19 -152 26 -183 16z"/>
<path d="M2113 10046 c-7 -6 -20 -18 -29 -25 -14 -12 -15 -16 -3 -20 8 -2 20
-11 27 -20 11 -14 12 -13 6 8 -4 17 -2 22 7 19 8 -3 15 -14 17 -26 3 -16 -3
-21 -24 -24 -15 -2 -30 -10 -32 -18 -3 -8 -1 -12 3 -8 4 4 13 0 20 -9 10 -13
9 -22 -1 -41 -10 -19 -10 -29 -1 -44 10 -15 13 -16 15 -3 7 30 42 -2 42 -38 0
-24 -3 -28 -10 -17 -8 13 -10 12 -11 -5 -1 -11 -1 -27 0 -36 2 -19 -14 -34
-64 -59 -35 -18 -45 -14 -22 9 10 10 9 11 -5 6 -10 -4 -18 -11 -18 -16 0 -5
-13 -15 -29 -23 -44 -23 -111 -45 -111 -36 0 10 -35 1 -70 -17 -14 -7 -30 -13
-37 -13 -25 0 -157 -59 -143 -64 8 -2 57 -7 108 -9 67 -3 97 -1 106 8 15 15
42 3 32 -14 -4 -6 -2 -11 4 -11 6 0 8 -4 5 -10 -3 -5 6 -12 20 -16 14 -3 25
-13 25 -23 1 -14 2 -14 14 2 13 16 14 16 20 -5 3 -13 6 -36 6 -53 0 -16 4 -36
9 -44 6 -9 7 9 4 48 l-6 62 64 -5 c35 -2 65 -9 67 -15 5 -14 42 -15 42 -1 0 6
8 10 18 10 13 0 11 -5 -11 -24 -22 -19 -28 -32 -26 -58 1 -18 -1 -52 -5 -76
-5 -28 -4 -47 3 -56 9 -10 9 -21 0 -40 -11 -23 -10 -28 7 -41 10 -8 25 -15 32
-15 6 0 12 -4 12 -10 0 -5 -7 -7 -15 -4 -8 4 -15 1 -15 -6 0 -6 -4 -9 -9 -6
-12 8 -22 -20 -14 -41 4 -11 3 -14 -5 -9 -8 5 -12 -3 -12 -26 0 -44 12 -60 41
-56 17 2 23 -1 21 -11 -4 -18 15 -30 37 -24 11 3 17 15 17 36 1 44 51 146 78
157 l21 9 -22 0 c-16 1 -21 5 -17 16 4 10 13 13 24 10 22 -7 54 62 38 82 -7 9
-6 14 3 18 8 3 15 17 16 32 0 14 8 30 17 35 9 5 16 13 16 18 0 13 -37 13 -45
0 -7 -11 -48 -13 -83 -4 l-22 6 24 23 c28 26 58 34 143 39 35 2 69 9 77 16 9
6 21 10 28 7 7 -2 25 3 40 11 15 9 31 13 34 9 13 -13 -35 -47 -66 -47 -16 0
-30 -4 -30 -10 0 -11 60 -11 105 0 17 4 26 8 21 9 -18 2 33 41 54 41 11 0 20
2 20 5 0 2 -20 23 -44 45 -37 34 -44 46 -41 71 3 24 1 29 -17 29 l-21 0 22 23
c13 15 19 30 15 41 -4 10 1 25 11 36 11 12 13 20 7 20 -23 0 -12 18 28 45 22
15 40 32 40 38 0 5 18 29 40 53 22 24 40 49 40 56 0 7 -13 -3 -30 -22 -16 -19
-29 -30 -30 -24 0 6 9 19 21 30 12 10 30 32 42 48 l20 28 -24 -7 c-22 -7 -23
-6 -9 10 14 16 12 17 -20 10 -19 -4 -44 -13 -55 -21 -11 -7 -45 -22 -76 -34
-55 -20 -107 -60 -79 -60 19 0 9 -7 -33 -25 -20 -8 -37 -11 -37 -6 0 5 10 11
22 14 12 4 19 9 16 12 -9 9 -97 -19 -139 -44 l-36 -21 -36 42 c-20 24 -61 77
-92 118 -58 78 -82 95 -102 76z m634 -92 c-3 -3 -12 -4 -19 -1 -8 3 -5 6 6 6
11 1 17 -2 13 -5z m-72 -28 c-28 -22 -45 -25 -45 -7 0 5 33 19 70 30 3 0 -8
-10 -25 -23z m-525 -28 c0 -5 -4 -8 -10 -8 -5 0 -10 10 -10 23 0 18 2 19 10 7
5 -8 10 -18 10 -22z m280 -77 c0 -5 -7 -12 -16 -15 -14 -5 -15 -4 -4 9 14 17
20 19 20 6z m40 -51 c-18 -12 -53 -13 -46 -2 2 4 17 8 33 10 21 1 24 -1 13 -8z
m-90 -69 c0 -12 -29 -23 -41 -15 -5 3 -7 10 -4 15 8 12 45 12 45 0z m-70 -16
c0 -8 -7 -15 -15 -15 -26 0 -18 20 13 29 1 1 2 -6 2 -14z m-52 -26 c-18 -12
-25 -11 -31 4 -4 10 2 13 20 9 18 -3 21 -7 11 -13z m235 -46 c-7 -2 -19 -2
-25 0 -7 3 -2 5 12 5 14 0 19 -2 13 -5z m-53 -10 c-8 -2 -25 -9 -37 -15 -13
-6 -26 -8 -30 -5 -3 4 1 7 10 7 10 0 17 5 17 10 0 6 12 10 28 9 15 0 20 -3 12
-6z m-397 -24 c-7 -7 -29 -13 -50 -14 l-38 -3 30 14 c38 17 74 19 58 3z m-262
-34 c-1 -15 -24 -12 -29 3 -3 9 2 13 12 10 10 -1 17 -7 17 -13z m569 -40 c-7
-8 -16 -15 -21 -15 -5 0 -6 7 -3 15 4 8 13 15 21 15 13 0 13 -3 3 -15z m-212
-37 c2 -12 -2 -15 -17 -11 -12 3 -18 10 -14 16 4 6 0 8 -10 4 -8 -3 -20 0 -26
7 -9 10 -3 12 26 7 24 -4 39 -12 41 -23z m117 -18 c-18 -19 -55 -28 -55 -12 0
9 39 29 59 31 11 1 9 -4 -4 -19z m5 -30 c0 -5 -7 -10 -16 -10 -8 0 -12 5 -9
10 3 6 10 10 16 10 5 0 9 -4 9 -10z m-56 -62 c8 -6 8 -8 -1 -8 -9 0 -14 -20
-15 -62 -2 -60 -2 -61 -5 -14 -3 30 -11 54 -20 61 -14 11 -14 12 2 19 17 6 17
7 1 25 -17 18 -17 19 1 23 12 2 19 -3 22 -17 1 -11 8 -23 15 -27z m96 -158 c0
-15 -6 -20 -27 -19 -16 0 -37 4 -48 8 -16 7 -12 10 25 19 25 5 46 10 48 11 1
1 2 -8 2 -19z m-24 -47 c-4 -4 -24 -8 -44 -9 -28 -2 -32 0 -17 6 25 11 71 13
61 3z"/>
<path d="M2874 10050 c-12 -5 -25 -14 -30 -21 -4 -8 -3 -10 4 -5 7 4 12 3 12
-3 0 -5 -4 -13 -10 -16 -5 -3 -10 -12 -10 -18 0 -7 9 -1 21 13 20 26 42 61 37
59 -2 0 -13 -4 -24 -9z"/>
<path d="M11254 10035 c11 -8 25 -15 30 -15 6 0 2 7 -8 15 -11 8 -25 15 -30
15 -6 0 -2 -7 8 -15z"/>
<path d="M5635 9965 c-5 -2 -53 -15 -105 -30 -92 -25 -138 -47 -89 -41 31 3
229 65 229 71 0 5 -19 5 -35 0z"/>
<path d="M7930 9927 c0 -11 29 -26 90 -44 8 -3 -5 9 -30 26 -50 34 -60 37 -60
18z"/>
<path d="M11400 9904 c0 -8 5 -12 10 -9 6 3 10 10 10 16 0 5 -4 9 -10 9 -5 0
-10 -7 -10 -16z"/>
<path d="M11430 9840 c0 -5 5 -10 11 -10 5 0 7 5 4 10 -3 6 -8 10 -11 10 -2 0
-4 -4 -4 -10z"/>
<path d="M11380 9780 c0 -5 5 -10 10 -10 6 0 10 5 10 10 0 6 -4 10 -10 10 -5
0 -10 -4 -10 -10z"/>
<path d="M11427 9771 c-15 -9 -24 -20 -21 -24 4 -3 13 0 20 8 8 7 19 15 26 18
7 2 11 7 8 10 -3 3 -18 -2 -33 -12z"/>
<path d="M11488 9750 c-18 -16 -28 -30 -21 -30 7 0 17 8 23 18 7 10 13 13 16
6 4 -10 64 -7 64 4 0 6 -33 31 -42 32 -4 0 -22 -13 -40 -30z"/>
<path d="M11325 9750 c-3 -5 1 -10 9 -10 9 0 16 5 16 10 0 6 -4 10 -9 10 -6 0
-13 -4 -16 -10z"/>
<path d="M11420 9710 c0 -5 5 -10 10 -10 6 0 10 5 10 10 0 6 -4 10 -10 10 -5
0 -10 -4 -10 -10z"/>
<path d="M11515 9690 c-3 -5 1 -10 10 -10 9 0 13 5 10 10 -3 6 -8 10 -10 10
-2 0 -7 -4 -10 -10z"/>
<path d="M11544 9669 c-3 -6 -22 -9 -40 -7 -37 4 -43 -2 -18 -23 8 -7 13 -21
11 -31 -5 -19 17 -26 28 -8 9 14 45 -7 45 -26 0 -8 -7 -17 -15 -20 -8 -4 -15
-15 -15 -26 0 -16 5 -19 23 -14 12 3 25 6 29 6 4 0 5 7 2 15 -4 9 6 21 27 34
31 19 34 19 53 3 10 -9 17 -12 15 -7 -2 6 -11 27 -19 48 -12 33 -40 52 -40 28
0 -14 -53 -20 -74 -9 -18 10 -18 12 -3 23 9 7 17 15 17 19 0 10 -18 7 -26 -5z"/>
<path d="M2637 9657 c-11 -29 -9 -43 4 -30 6 6 9 19 7 29 -3 18 -4 18 -11 1z"/>
<path d="M9895 9550 c-47 -11 -108 -51 -97 -62 14 -14 80 9 92 33 6 10 25 23
43 28 38 11 5 12 -38 1z"/>
<path d="M11625 9521 c-3 -5 -19 -13 -37 -16 l-32 -7 25 -14 c13 -7 20 -13 15
-14 -5 0 3 -9 18 -21 27 -21 35 -49 14 -50 -7 0 -3 -4 9 -9 19 -8 22 -14 17
-40 -5 -22 -3 -30 7 -29 20 1 57 17 41 18 -7 1 -10 6 -7 11 5 8 11 8 19 0 8
-6 33 -7 62 -4 31 4 45 3 39 -3 -17 -16 -92 -36 -110 -29 -13 4 -16 2 -11 -9
3 -10 -1 -15 -14 -15 -10 0 -21 -4 -24 -9 -7 -11 30 -45 42 -37 5 3 15 -1 22
-9 7 -9 22 -14 34 -13 18 3 21 -2 21 -35 0 -27 6 -43 21 -55 20 -15 40 -57 36
-73 -1 -4 7 -5 18 -2 15 4 18 1 15 -16 -3 -16 3 -23 28 -29 21 -6 32 -15 31
-25 -1 -10 5 -17 13 -17 13 0 13 -3 3 -16 -11 -13 -10 -16 8 -21 12 -3 19 -9
16 -14 -3 -5 -1 -9 4 -9 5 0 9 -12 10 -27 0 -37 23 -123 33 -123 8 0 6 -26 -3
-36 -4 -3 -3 -16 2 -29 5 -14 5 -26 -3 -34 -13 -13 -2 -14 38 -2 22 6 34 4 43
-5 7 -8 8 -14 2 -14 -18 0 -11 -39 10 -50 11 -6 20 -17 20 -25 0 -8 7 -15 15
-15 8 0 15 -7 15 -15 0 -8 5 -15 11 -15 6 0 8 -9 4 -22 -6 -16 -4 -20 8 -15
12 4 15 -2 14 -29 -1 -27 -8 -39 -34 -57 -38 -26 -42 -37 -10 -30 21 4 21 3
-3 -11 l-25 -14 28 -13 c15 -7 27 -16 27 -22 0 -5 6 -7 14 -4 20 8 27 -3 16
-23 -8 -15 -3 -24 20 -43 20 -17 28 -31 23 -42 -8 -23 15 -35 44 -24 32 12 56
11 48 -1 -3 -5 -18 -10 -32 -10 -23 0 -52 -23 -53 -43 0 -4 14 -5 31 -2 19 4
28 2 24 -5 -3 -5 -15 -10 -26 -10 -22 0 -26 -18 -4 -26 8 -4 12 -10 9 -15 -7
-12 3 -11 43 3 18 7 33 16 33 21 0 4 5 5 10 2 6 -3 10 -2 10 3 0 10 37 5 55
-8 6 -4 22 -10 38 -14 37 -9 34 -23 -5 -29 -60 -9 -152 -38 -160 -50 -7 -11 0
-157 8 -166 2 -2 31 -4 64 -4 33 1 57 -3 54 -8 -3 -5 -14 -9 -24 -9 -25 0 -32
-39 -28 -145 2 -64 6 -80 18 -78 55 6 90 15 85 24 -4 5 7 9 24 9 16 0 33 5 36
10 10 16 24 12 51 -17 l24 -26 -14 33 c-12 30 -12 37 2 59 16 23 16 24 -3 19
-11 -3 -29 -9 -40 -14 -13 -5 -7 6 18 30 42 43 44 48 20 39 -15 -5 -16 -3 -5
8 6 7 12 17 12 22 0 5 -6 7 -12 4 -7 -2 -21 0 -32 5 -15 8 -16 12 -5 19 11 7
9 9 -8 9 -12 0 -25 5 -28 10 -3 6 2 10 13 10 25 0 31 7 25 31 -4 13 -11 18
-23 14 -23 -7 -32 6 -14 22 8 8 15 9 19 3 9 -15 25 -12 25 4 0 8 -11 17 -25
20 -26 7 -25 36 2 36 8 0 11 5 8 10 -4 6 -2 17 5 24 8 11 5 18 -15 34 -14 11
-25 27 -25 35 0 27 -25 74 -37 70 -7 -3 -13 2 -13 10 0 9 8 17 18 20 12 3 8 8
-16 17 -37 14 -32 27 11 32 l28 3 -21 23 c-12 12 -25 20 -30 17 -6 -3 -7 1 -4
9 5 12 -1 16 -21 16 -18 0 -25 4 -22 13 2 6 1 22 -4 35 -9 24 -44 30 -52 10
-4 -10 -8 -9 -16 2 -6 8 -11 18 -11 22 0 9 57 21 69 14 5 -4 12 -2 16 4 3 5
-5 12 -18 15 -20 5 -24 12 -21 38 2 17 10 34 17 39 8 5 4 8 -12 8 -24 0 -24 0
-6 20 17 19 17 20 2 14 -12 -4 -24 3 -40 22 -12 16 -21 32 -20 36 2 5 -11 8
-27 8 -28 0 -30 2 -20 20 6 11 8 24 5 29 -3 5 1 11 7 14 8 3 6 7 -7 12 -11 3
-28 11 -37 16 -24 13 -82 11 -95 -2 -6 -6 -16 -8 -23 -4 -21 13 22 35 57 29
25 -5 34 -2 42 14 24 44 15 59 -39 65 -67 8 -79 17 -47 34 23 12 30 11 52 -3
15 -10 25 -12 25 -5 0 6 -5 11 -11 11 -6 0 -9 7 -5 15 3 10 -1 15 -13 15 -29
0 -54 35 -47 65 5 19 0 32 -21 54 -26 26 -33 29 -78 25 l-50 -5 45 25 c25 14
53 25 63 26 9 0 17 5 17 10 0 13 -16 13 -41 -1 -19 -10 -20 -9 -9 12 11 20 10
21 -6 15 -40 -16 -77 -19 -70 -7 4 6 11 9 16 6 5 -3 22 1 37 9 24 13 25 15 8
16 -18 1 -19 1 -2 11 9 5 17 17 17 24 0 11 -14 15 -56 15 -34 0 -53 4 -49 10
7 11 -10 14 -72 10 -31 -1 -43 2 -43 12 0 9 23 18 68 26 71 14 105 32 60 32
-15 0 -29 -6 -31 -12 -4 -10 -8 -10 -15 1 -6 8 -18 11 -33 6 -15 -4 -9 3 16
19 22 14 45 26 50 26 6 0 11 9 11 21 0 19 -4 20 -46 14 -25 -4 -64 -15 -87
-25 -39 -17 -42 -17 -45 -2 -4 19 35 56 72 67 39 12 58 52 20 42 -13 -3 -20 0
-20 9 0 11 -4 12 -19 4 -11 -5 -32 -10 -48 -9 -15 0 -23 3 -17 5 8 4 9 17 3
45 -5 22 -6 45 -3 51 5 8 1 9 -12 3 -28 -12 -82 -18 -100 -11 -13 5 -14 9 -5
20 9 11 8 15 -5 20 -20 8 -22 8 -29 -3z m12 -47 c-3 -3 -12 -4 -19 -1 -8 3 -5
6 6 6 11 1 17 -2 13 -5z m463 -594 c0 -5 -5 -10 -11 -10 -5 0 -7 5 -4 10 3 6
8 10 11 10 2 0 4 -4 4 -10z m160 -610 c0 -5 -12 -10 -27 -9 -25 0 -26 1 -8 9
27 12 35 12 35 0z m227 -176 c-3 -3 -12 -4 -19 -1 -8 3 -5 6 6 6 11 1 17 -2
13 -5z m3 -124 c10 0 11 -3 3 -11 -8 -8 -19 -6 -39 6 -28 15 -28 16 -4 11 14
-3 32 -6 40 -6z"/>
<path d="M11750 9520 c0 -5 4 -10 9 -10 6 0 13 5 16 10 3 6 -1 10 -9 10 -9 0
-16 -4 -16 -10z"/>
<path d="M2720 9432 c0 -13 34 -42 49 -42 8 0 6 8 -5 25 -16 24 -44 34 -44 17z"/>
<path d="M2654 9409 c-35 -8 -41 -13 -37 -29 4 -14 14 -20 32 -20 30 1 76 35
66 50 -7 11 -5 11 -61 -1z"/>
<path d="M2444 9383 c-30 -6 -38 -40 -11 -47 12 -3 26 -1 32 4 6 5 22 7 36 4
21 -4 22 -3 4 5 -11 5 -16 10 -11 10 5 1 3 8 -4 16 -7 8 -15 14 -19 14 -3 -1
-16 -4 -27 -6z"/>
<path d="M4000 9345 c-7 -8 -19 -15 -27 -15 -7 0 -16 -8 -20 -17 -3 -10 -13
-26 -22 -36 -13 -16 -13 -19 -1 -27 20 -13 37 -12 45 0 3 6 -2 10 -12 10 -17
1 -17 1 0 11 9 6 26 8 36 4 11 -3 25 2 36 15 10 11 21 17 26 15 4 -3 10 -1 13
4 6 9 -39 51 -54 51 -4 0 -13 -7 -20 -15z"/>
<path d="M11940 9350 c-9 -6 -10 -10 -3 -10 6 0 15 5 18 10 8 12 4 12 -15 0z"/>
<path d="M2620 9296 c0 -2 7 -6 15 -10 8 -3 15 -1 15 4 0 6 -7 10 -15 10 -8 0
-15 -2 -15 -4z"/>
<path d="M2671 9283 c-15 -11 -15 -12 0 -13 23 0 49 -32 50 -61 0 -13 3 -18 6
-11 2 6 12 12 20 12 9 0 13 6 9 15 -7 20 18 19 35 -1 15 -18 59 -15 110 8 33
15 37 26 12 34 -10 3 -27 10 -37 16 -15 8 -21 6 -28 -6 -5 -9 -14 -16 -20 -16
-7 0 -6 5 2 15 15 18 14 18 -74 19 -40 1 -76 -4 -85 -11z"/>
<path d="M11982 9264 c4 -3 12 -6 20 -8 7 -1 19 -5 26 -10 16 -10 27 -2 17 13
-3 6 -20 11 -37 11 -17 0 -29 -3 -26 -6z"/>
<path d="M12006 9225 c-3 -8 -1 -15 4 -15 6 0 10 7 10 15 0 8 -2 15 -4 15 -2
0 -6 -7 -10 -15z"/>
<path d="M3853 9219 c-47 -11 -80 -39 -45 -39 11 0 22 4 24 8 2 5 28 16 58 24
59 18 32 22 -37 7z"/>
<path d="M2940 9211 c-8 -5 -33 -12 -55 -16 l-40 -8 70 -17 c76 -18 157 -32
138 -24 -6 3 -28 21 -48 40 -39 37 -42 38 -65 25z"/>
<path d="M11986 9181 c-12 -5 -15 -10 -9 -14 6 -4 16 0 23 8 14 17 13 17 -14
6z"/>
<path d="M12035 9180 c-3 -5 1 -10 9 -10 8 0 18 5 21 10 3 6 -1 10 -9 10 -8 0
-18 -4 -21 -10z"/>
<path d="M925 9140 c-3 -5 -2 -10 4 -10 5 0 13 5 16 10 3 6 2 10 -4 10 -5 0
-13 -4 -16 -10z"/>
<path d="M8696 9104 c-32 -58 -32 -60 2 -36 15 11 43 26 62 34 l35 15 -32 16
c-18 10 -34 17 -37 17 -2 0 -16 -21 -30 -46z"/>
<path d="M10716 9110 c-43 -11 -107 -34 -141 -50 -35 -17 -67 -30 -72 -30 -5
0 -96 -35 -202 -78 -222 -89 -243 -104 -223 -169 13 -43 44 -62 82 -52 14 4
50 7 80 7 66 1 44 -12 -40 -22 -93 -12 -92 -11 -74 -54 20 -49 52 -82 77 -79
11 1 22 -4 24 -10 3 -9 -6 -13 -27 -13 -25 0 -31 -3 -26 -16 3 -9 6 -18 6 -20
0 -2 8 -4 18 -4 12 0 13 -3 5 -8 -10 -6 52 -169 236 -628 l248 -619 39 1 c48
2 160 28 176 41 7 6 30 13 51 17 51 9 47 26 -8 26 -25 0 -45 4 -45 9 0 18 21
22 55 11 28 -9 46 -9 88 4 72 21 127 27 127 14 0 -6 12 -8 33 -4 17 4 57 9 87
11 50 4 53 3 36 -10 -10 -8 -22 -12 -27 -10 -4 3 -36 -1 -70 -9 -35 -9 -68
-11 -73 -7 -12 9 -133 -3 -144 -14 -4 -4 22 -5 57 -1 55 5 62 4 51 -9 -13 -16
-47 -24 -135 -30 -81 -6 -85 -7 -85 -17 0 -4 -14 -8 -30 -8 -17 0 -38 -4 -48
-9 -67 -34 -107 -55 -110 -57 -12 -8 41 -96 63 -106 28 -13 71 -2 170 42 22
10 61 26 88 35 26 10 47 22 47 27 0 5 -8 4 -19 -1 -12 -7 -30 -7 -52 -1 -44
13 -95 13 -119 0 -22 -12 -73 -3 -64 11 3 5 0 9 -6 9 -6 0 -8 4 -5 10 3 5 20
7 37 3 22 -4 29 -3 24 5 -9 15 -1 15 25 1 15 -7 24 -7 35 1 9 8 30 10 56 6 24
-3 80 0 125 7 47 8 86 10 91 5 10 -10 80 15 172 62 49 25 58 33 48 44 -7 7
-20 11 -30 8 -10 -2 -26 -1 -35 3 -14 6 -5 11 32 21 68 18 91 18 76 0 -7 -8
-8 -17 -3 -20 14 -9 126 97 162 154 41 64 67 148 76 244 7 80 -3 110 -33 99
-11 -4 -14 -3 -9 6 5 7 14 10 22 7 17 -7 18 12 3 87 -13 61 -14 62 -53 47 -14
-5 -43 -11 -65 -14 -21 -3 -57 -10 -78 -16 -22 -7 -64 -10 -94 -9 l-56 4 14
-45 c21 -64 21 -69 22 -127 1 -43 4 -53 19 -54 13 0 13 -2 -5 -9 -12 -5 -24
-21 -27 -38 -9 -39 -59 -97 -109 -126 -34 -20 -288 -126 -301 -126 -2 0 -99
239 -217 531 -117 292 -217 536 -223 543 -6 6 -11 17 -12 24 -1 6 -2 19 -2 27
-2 17 -35 20 -63 4 -15 -8 -24 -7 -35 2 -22 18 2 30 45 22 33 -6 34 -5 27 23
-4 16 -8 35 -9 43 -2 16 225 113 307 131 105 23 200 -20 268 -120 21 -30 67
-125 101 -210 l64 -155 35 -3 c26 -2 37 -9 41 -23 6 -24 -5 -31 -37 -23 l-25
6 22 -52 22 -52 45 7 c25 3 55 8 68 9 24 3 55 26 36 26 -6 0 -15 -5 -22 -12
-8 -8 -12 -8 -12 -1 0 17 27 23 75 16 34 -4 50 -2 63 10 9 8 31 17 48 19 l32
3 -26 55 c-14 30 -24 59 -23 64 1 5 -4 6 -11 3 -53 -21 -53 -21 -40 -5 10 13
10 17 0 21 -8 4 -5 8 10 12 12 4 22 9 22 12 0 13 -116 286 -143 336 -31 59
-68 87 -91 69 -6 -5 -28 -12 -48 -16 -21 -4 -38 -11 -38 -16 0 -6 -30 -9 -67
-8 -37 1 -62 3 -55 6 7 2 12 10 12 18 0 8 9 18 20 22 20 8 20 8 -5 32 -24 23
-35 25 -120 25 -52 1 -97 4 -101 8 -4 4 0 7 9 7 10 0 17 8 17 19 0 25 28 35
54 18 15 -9 33 -11 61 -5 22 4 56 5 75 2 19 -3 59 1 88 9 l52 13 -27 26 c-51
47 -114 87 -172 109 -82 31 -231 35 -335 9z m249 -50 c-3 -4 -25 -14 -49 -21
-25 -7 -42 -17 -40 -21 11 -17 -43 -26 -91 -16 -44 9 -47 12 -31 24 10 7 38
16 62 20 24 3 60 12 80 19 37 12 78 10 69 -5z m-402 -47 c-7 -2 -19 -2 -25 0
-7 3 -2 5 12 5 14 0 19 -2 13 -5z m172 -43 c-3 -6 1 -13 9 -16 21 -8 10 -24
-15 -24 -11 0 -17 5 -14 10 3 6 -1 13 -9 16 -21 8 -10 24 15 24 11 0 17 -5 14
-10z m-169 -25 c-33 -17 -39 -19 -32 -6 4 5 0 12 -6 14 -7 3 5 6 27 6 l40 1
-29 -15z m-111 -5 c-3 -5 -34 -10 -68 -9 -46 1 -56 3 -37 9 37 12 112 12 105
0z m413 -55 c-2 -1 -19 -5 -38 -8 -31 -6 -33 -5 -17 7 10 8 27 12 38 9 11 -3
18 -7 17 -8z m232 -9 c0 -2 -7 -7 -16 -10 -8 -3 -12 -2 -9 4 6 10 25 14 25 6z
m-905 -26 c-3 -5 -19 -10 -36 -10 -16 0 -29 5 -29 10 0 6 16 10 36 10 21 0 33
-4 29 -10z m465 2 c0 -7 -57 -32 -74 -32 -18 0 8 21 37 29 18 5 33 10 35 10 1
1 2 -3 2 -7z m-230 -92 c0 -5 -5 -10 -11 -10 -6 0 -9 -6 -6 -14 6 -15 -27 -29
-38 -17 -4 3 -20 6 -36 6 -45 0 -34 19 19 31 63 15 72 16 72 4z m-57 -157 c-7
-2 -19 -2 -25 0 -7 3 -2 5 12 5 14 0 19 -2 13 -5z m-29 -30 c-19 -14 -14 -16
23 -13 12 0 34 -6 50 -14 26 -14 26 -15 6 -16 -12 0 -25 -4 -28 -10 -9 -15
-35 -12 -35 5 0 9 -6 12 -15 9 -8 -4 -12 -11 -9 -16 4 -6 -2 -8 -15 -3 -11 3
-40 7 -63 7 l-42 0 38 19 c21 10 42 16 47 14 4 -3 10 -1 14 4 3 5 -2 14 -12
19 -13 8 -9 10 21 9 33 -1 36 -2 20 -14z m1151 -123 c-3 -5 -11 -10 -16 -10
-6 0 -7 5 -4 10 3 6 11 10 16 10 6 0 7 -4 4 -10z m-166 -234 c-12 -10 -49 -16
-49 -7 0 5 10 11 23 13 22 4 34 1 26 -6z m181 -336 c0 -5 8 -10 17 -10 31 0
-1 -18 -44 -25 -29 -4 -43 -3 -43 4 0 6 9 11 20 11 11 0 23 7 26 15 7 17 24
20 24 5z m90 -14 c0 -2 -9 -6 -19 -9 -14 -3 -19 0 -18 13 1 15 5 16 19 9 10
-5 18 -11 18 -13z m-20 -166 c0 -5 -5 -10 -11 -10 -5 0 -7 5 -4 10 3 6 8 10
11 10 2 0 4 -4 4 -10z m45 -30 c-3 -5 -16 -10 -28 -10 -18 0 -19 2 -7 10 20
13 43 13 35 0z m15 -64 c0 -9 -50 -12 -62 -5 -8 6 1 9 25 9 20 0 37 -2 37 -4z
m-150 -16 c-36 -12 -110 -12 -110 0 0 6 29 10 68 9 49 -1 60 -3 42 -9z m-235
-80 c-3 -5 -23 -10 -43 -9 -30 0 -33 2 -17 9 28 12 67 12 60 0z m-495 -132 c0
-14 -5 -18 -16 -14 -9 3 -26 6 -38 6 -12 0 -30 6 -39 13 -15 10 -9 12 38 14
49 2 55 0 55 -19z m0 -48 c0 -5 -4 -10 -9 -10 -6 0 -13 5 -16 10 -3 6 1 10 9
10 9 0 16 -4 16 -10z m-33 -16 c-3 -3 -12 -4 -19 -1 -8 3 -5 6 6 6 11 1 17 -2
13 -5z m80 0 c-3 -3 -12 -4 -19 -1 -8 3 -5 6 6 6 11 1 17 -2 13 -5z"/>
<path d="M3796 9038 c-24 -35 -42 -65 -40 -67 2 -3 22 13 44 34 22 21 37 41
35 44 -3 2 2 15 10 28 9 13 11 23 6 23 -5 0 -30 -28 -55 -62z"/>
<path d="M11805 9050 c-3 -5 -1 -10 4 -10 6 0 11 5 11 10 0 6 -2 10 -4 10 -3
0 -8 -4 -11 -10z"/>
<path d="M3735 9020 c-3 -5 -15 -10 -25 -10 -22 0 -35 -16 -21 -24 5 -4 22 5
38 19 15 13 25 25 21 25 -4 0 -10 -4 -13 -10z"/>
<path d="M12075 9010 c-8 -13 5 -13 25 0 13 8 13 10 -2 10 -9 0 -20 -4 -23
-10z"/>
<path d="M2143 8963 c-18 -6 -16 -23 1 -23 17 0 30 16 19 23 -5 2 -14 2 -20 0z"/>
<path d="M11220 8929 c0 -6 -9 -8 -21 -4 -17 6 -20 3 -17 -12 3 -12 11 -17 28
-15 19 1 21 0 10 -7 -19 -13 -9 -22 21 -21 13 0 37 0 53 0 27 1 27 2 13 23 -9
12 -20 21 -26 20 -6 -2 -8 4 -5 12 5 11 -2 15 -25 15 -17 0 -31 -5 -31 -11z"/>
<path d="M2168 8914 c-22 -12 -28 -22 -27 -47 0 -18 4 -41 8 -51 6 -15 12 -6
31 43 12 34 21 63 19 65 -2 3 -16 -2 -31 -10z"/>
<path d="M3564 8828 l-19 -23 25 20 c14 11 27 21 29 22 2 2 0 3 -6 3 -5 0 -18
-10 -29 -22z"/>
<path d="M758 8804 c-16 -8 -28 -19 -28 -25 0 -5 -6 -9 -12 -8 -7 1 -32 1 -55
0 -34 -1 -43 -5 -43 -19 0 -14 8 -17 48 -15 26 2 40 0 32 -4 -8 -3 -18 -10
-21 -15 -4 -6 -21 -13 -39 -17 -26 -5 -36 -14 -46 -41 -7 -19 -13 -31 -13 -25
-1 5 -6 4 -13 -3 -17 -17 -26 -15 -30 5 -5 29 -76 -137 -108 -257 -26 -97 -41
-137 -78 -214 -3 -5 0 -6 7 -2 10 7 50 86 64 129 4 9 12 17 18 17 11 0 8 -41
-7 -98 -6 -22 -5 -23 57 -20 l63 3 76 200 c42 110 88 227 104 260 28 61 60
154 54 160 -2 2 -15 -3 -30 -11z m2 -23 c0 -6 -4 -13 -10 -16 -5 -3 -10 1 -10
9 0 9 5 16 10 16 6 0 10 -4 10 -9z"/>
<path d="M9790 8743 c-65 -19 -777 -310 -792 -325 -10 -10 -18 -29 -18 -43 0
-21 63 -194 89 -243 5 -9 19 -45 32 -80 l22 -63 78 4 c52 3 84 0 95 -8 15 -10
13 -13 -15 -24 -17 -7 -37 -11 -46 -8 -8 4 -17 2 -20 -3 -3 -4 1 -11 7 -13 7
-3 -1 -6 -17 -6 -17 -1 -36 4 -43 11 -6 6 -14 10 -16 7 -2 -2 51 -141 120
-309 68 -168 125 -309 127 -315 2 -5 18 6 36 25 l33 35 -31 -40 -31 -41 36
-89 c20 -50 37 -92 39 -94 2 -1 15 -4 29 -5 30 -1 34 -16 7 -23 -18 -5 -19 -7
-5 -45 38 -109 134 -222 222 -260 63 -28 163 -36 181 -14 18 21 32 21 24 -1
-5 -13 -3 -15 13 -9 10 4 30 10 44 12 45 8 95 26 111 40 9 8 18 12 21 9 8 -8
402 154 416 172 19 26 15 66 -14 140 -27 70 -62 113 -92 113 -9 0 -109 -37
-222 -82 -178 -71 -213 -82 -267 -83 -95 0 -116 25 -209 255 -41 101 -71 187
-67 191 5 4 89 40 188 79 296 118 286 107 229 249 -36 91 -53 111 -93 111 -12
0 -116 -38 -232 -84 l-210 -85 -18 42 c-10 23 -29 70 -42 104 -24 62 -24 63
-56 57 -21 -4 -33 -2 -33 5 0 6 15 11 33 11 l32 1 -23 18 c-12 11 -17 21 -11
23 7 2 -2 35 -25 91 -20 48 -36 93 -36 100 0 7 41 28 91 47 59 23 94 41 97 53
5 18 18 23 24 7 4 -13 297 106 326 133 12 11 22 31 22 45 0 24 0 24 -74 17
-70 -6 -75 -5 -86 16 -12 21 -11 22 31 15 30 -4 39 -3 29 3 -8 6 -11 13 -7 17
3 4 14 1 22 -6 21 -17 67 2 59 25 -7 18 -32 19 -70 5 -19 -8 -30 -8 -38 0 -7
7 0 10 22 10 18 0 32 5 32 10 0 6 7 10 15 10 8 0 15 7 15 15 0 8 -5 15 -10 15
-6 0 -15 11 -19 24 -10 24 -35 36 -61 29z m-83 -69 c-3 -3 -12 -4 -19 -1 -8 3
-5 6 6 6 11 1 17 -2 13 -5z m53 -8 c0 -11 -19 -15 -25 -6 -3 5 1 10 9 10 9 0
16 -2 16 -4z m20 -45 c0 -5 -13 -11 -29 -14 -16 -3 -35 -12 -42 -19 -21 -20
-76 -37 -99 -31 -37 10 -19 37 30 46 25 4 61 12 80 16 49 12 60 12 60 2z
m-220 -31 c0 -5 -7 -10 -16 -10 -8 0 -12 5 -9 10 3 6 10 10 16 10 5 0 9 -4 9
-10z m-436 -231 c-3 -5 -10 -7 -15 -3 -5 3 -7 10 -3 15 3 5 10 7 15 3 5 -3 7
-10 3 -15z m250 12 c3 -5 -1 -12 -10 -15 -25 -10 -34 -7 -34 9 0 16 35 21 44
6z m-257 -207 c-3 -3 -12 -4 -19 -1 -8 3 -5 6 6 6 11 1 17 -2 13 -5z m243 -15
c0 -5 -15 -9 -32 -9 l-33 0 25 14 c26 13 40 12 40 -5z m-200 -3 c0 -2 -9 -6
-20 -9 -11 -3 -18 -1 -14 4 5 9 34 13 34 5z m200 -151 c0 -2 -9 -9 -20 -15
-12 -6 -20 -7 -20 -1 0 5 8 12 18 14 9 3 18 5 20 6 1 0 2 -1 2 -4z m5 -85 c3
-5 -1 -10 -10 -10 -9 0 -13 5 -10 10 3 6 8 10 10 10 2 0 7 -4 10 -10z m125
-510 c0 -5 -5 -10 -11 -10 -5 0 -7 5 -4 10 3 6 8 10 11 10 2 0 4 -4 4 -10z
m135 -190 c3 -5 1 -10 -4 -10 -6 0 -11 5 -11 10 0 6 2 10 4 10 3 0 8 -4 11
-10z m-15 -80 c0 -5 -10 -15 -22 -21 -12 -7 -30 -21 -39 -33 -10 -12 -21 -17
-26 -12 -4 4 3 16 17 25 13 9 31 24 40 33 17 19 30 22 30 8z m570 -110 c0 -5
-7 -10 -15 -10 -8 0 -15 5 -15 10 0 6 7 10 15 10 8 0 15 -4 15 -10z m236 -5
c-25 -19 -36 -19 -36 0 0 10 10 15 28 15 26 -1 26 -1 8 -15z m-363 -160 c-23
-31 -31 -31 -29 0 1 19 7 25 24 25 23 0 23 0 5 -25z m-83 -59 c0 -3 -4 -8 -10
-11 -5 -3 -10 -1 -10 4 0 6 5 11 10 11 6 0 10 -2 10 -4z"/>
<path d="M12415 8430 c-15 -17 -16 -20 -3 -20 9 0 19 7 22 16 10 25 1 27 -19
4z"/>
<path d="M8606 8271 c-143 -60 -138 -39 -77 -352 137 -700 205 -1044 208
-1048 2 -3 24 10 48 27 64 45 67 40 6 -9 -39 -31 -50 -46 -46 -62 33 -160 36
-181 20 -196 -11 -12 -20 -13 -32 -5 -9 6 -203 300 -430 655 -227 354 -420
650 -430 657 -27 20 -56 15 -165 -29 -117 -46 -138 -61 -138 -98 0 -18 148
-248 462 -719 441 -659 464 -692 491 -689 17 2 27 -1 27 -10 0 -7 -7 -13 -15
-13 -22 0 -19 -11 15 -57 31 -42 82 -73 119 -73 35 0 91 28 91 44 0 11 10 16
29 16 17 0 33 5 36 11 4 6 19 7 36 4 19 -4 29 -3 29 5 0 7 -7 10 -16 6 -8 -3
-12 -2 -9 4 8 14 32 13 37 -1 3 -8 10 -9 23 -2 11 6 46 22 78 37 38 17 64 37
77 58 30 50 25 118 -9 118 -11 1 -8 5 9 15 14 8 19 14 11 15 -8 0 -11 6 -7 16
7 18 -32 244 -45 260 -5 6 -5 14 -1 19 4 4 -5 5 -20 3 -35 -6 -36 -1 -3 12 20
8 24 15 20 32 -3 13 -41 227 -85 476 -43 249 -82 457 -85 462 -3 6 -17 10 -30
10 -13 0 -27 5 -30 10 -4 6 -11 8 -16 5 -5 -4 -9 -1 -9 4 0 6 19 11 41 11 l41
0 -6 38 c-18 104 -28 142 -37 137 -5 -4 -9 -2 -9 4 0 5 4 11 9 13 12 4 -17
167 -35 196 -21 33 -73 28 -178 -17z m374 -1165 c0 -14 -78 -71 -86 -63 -3 2
11 14 31 26 19 11 38 27 41 36 8 19 14 19 14 1z m-12 -119 c-13 -26 -22 -14
-14 20 6 20 10 23 16 13 5 -8 4 -22 -2 -33z m22 -187 c0 -5 -4 -10 -10 -10 -5
0 -10 5 -10 10 0 6 5 10 10 10 6 0 10 -4 10 -10z m10 -179 c0 -4 -16 -12 -35
-18 -42 -13 -46 -4 -8 19 26 16 43 15 43 -1z m-166 -38 c-21 -15 -88 -18 -79
-3 3 6 14 10 23 10 9 1 28 7 42 15 30 17 42 -1 14 -22z m186 -23 c0 -5 -4 -10
-10 -10 -5 0 -10 5 -10 10 0 6 5 10 10 10 6 0 10 -4 10 -10z m-430 -134 c0 -3
-4 -8 -10 -11 -5 -3 -10 -1 -10 4 0 6 5 11 10 11 6 0 10 -2 10 -4z m100 -31
c-7 -8 -18 -15 -24 -15 -6 0 -2 7 8 15 25 19 32 19 16 0z m-52 -23 c9 -6 6
-14 -13 -32 -14 -13 -25 -18 -25 -12 0 6 8 16 18 21 15 9 15 12 2 21 -18 11
-1 13 18 2z m306 -6 c-10 -8 -21 -12 -24 -10 -5 6 21 24 34 24 6 0 1 -6 -10
-14z"/>
<path d="M11514 8207 c-3 -9 -12 -17 -20 -17 -8 0 -11 -6 -7 -17 5 -17 5 -17
-8 0 -16 20 -68 19 -106 -1 -27 -15 -53 -16 -53 -2 0 6 -11 10 -25 10 -30 0
-31 -10 -4 -41 14 -17 22 -20 25 -11 3 6 18 12 32 12 21 0 24 -2 12 -10 -19
-12 121 -12 140 0 16 10 42 1 34 -11 -11 -19 16 -38 39 -29 12 5 34 11 50 14
15 4 27 11 27 16 0 6 -12 8 -27 4 -30 -7 -31 -7 -50 -5 -24 2 -13 21 12 21 30
0 55 38 34 51 -8 4 -29 8 -47 7 -19 -1 -37 5 -42 13 -7 11 -10 10 -16 -4z"/>
<path d="M1030 8152 c0 -7 4 -20 9 -30 5 -9 17 -73 26 -142 8 -69 18 -141 21
-160 l5 -35 -176 -65 c-96 -36 -175 -67 -175 -70 0 -6 283 -50 323 -50 15 0
30 -6 32 -12 3 -7 8 -98 12 -202 l8 -189 60 122 c33 66 63 121 68 121 5 0 5
-10 1 -22 -6 -21 -5 -21 10 -9 10 8 26 32 37 53 18 34 22 37 52 31 17 -3 45
-12 60 -20 16 -8 35 -12 43 -9 8 3 50 -10 93 -29 44 -19 86 -35 94 -35 8 0 49
-17 90 -38 l75 -37 -29 35 c-15 19 -100 108 -187 198 -101 104 -154 166 -147
170 17 10 96 109 125 157 14 22 47 68 73 103 59 77 67 79 -176 -30 -98 -44
-182 -78 -186 -76 -5 2 -51 54 -102 117 -135 164 -138 167 -139 153z"/>
<path d="M6924 7615 c-50 -12 -126 -39 -168 -59 -311 -143 -417 -370 -332
-710 26 -103 217 -595 291 -751 63 -132 187 -295 224 -295 8 0 25 10 38 22 20
18 23 19 23 5 0 -9 5 -17 10 -17 6 0 10 5 10 10 0 18 22 11 27 -8 4 -16 14
-19 61 -17 31 1 68 7 82 13 14 6 34 13 45 17 l20 7 -20 8 c-14 6 -6 8 28 8 54
-1 60 -9 16 -25 -17 -7 -28 -16 -25 -21 3 -5 -5 -7 -18 -5 -12 3 -29 -1 -37
-9 -8 -8 -33 -19 -56 -26 -23 -7 -49 -19 -57 -27 -9 -10 -17 -11 -21 -5 -8 12
-25 13 -25 1 0 -4 28 -17 63 -26 80 -24 226 -24 281 -1 21 9 48 16 60 16 11 0
36 9 54 20 18 11 36 19 40 18 13 -5 102 33 102 43 0 5 6 9 13 9 20 0 88 50 82
61 -4 5 2 9 12 9 29 0 46 21 27 34 -12 9 -10 11 11 12 15 1 35 10 45 19 24 21
92 150 83 158 -3 4 0 14 8 23 10 13 14 51 14 148 0 111 -5 146 -27 227 -30
108 -235 623 -298 750 -163 324 -385 442 -686 364z m223 -307 c53 -24 104 -81
142 -157 36 -70 288 -696 306 -761 7 -25 16 -65 20 -90 4 -25 13 -48 19 -52 7
-5 6 -8 -4 -8 -9 0 -16 -10 -18 -25 -1 -14 -11 -43 -21 -64 -54 -106 -245
-185 -367 -152 -53 14 -115 69 -157 139 -41 67 -310 735 -334 825 -40 158 22
281 173 342 91 36 168 37 241 3z m529 -1083 c-11 -8 -25 -15 -30 -15 -6 1 0 7
14 15 32 19 40 18 16 0z m-518 -208 c6 0 12 -4 12 -9 0 -11 -67 -10 -74 1 -8
12 15 21 34 14 8 -3 21 -6 28 -6z m570 -17 c-9 -14 -14 -16 -20 -7 -5 9 -10 9
-20 -1 -6 -6 -19 -12 -27 -12 -21 0 -5 13 32 27 45 16 49 16 35 -7z m-248 -55
c0 -8 -6 -15 -14 -15 -17 0 -28 14 -19 24 12 12 33 6 33 -9z m101 -18 c-6 -8
-8 -17 -4 -20 3 -4 -6 -7 -22 -7 -27 0 -28 0 -10 20 21 23 55 29 36 7z m-531
-77 c-8 -5 -17 -7 -19 -4 -3 3 1 9 9 14 8 5 17 7 19 4 3 -3 -1 -9 -9 -14z
m480 -16 c0 -8 -5 -12 -10 -9 -6 4 -8 11 -5 16 9 14 15 11 15 -7z m-115 -34
c-3 -5 -12 -10 -18 -10 -7 0 -6 4 3 10 19 12 23 12 15 0z m-45 -19 c0 -5 -9
-7 -20 -4 -11 3 -20 7 -20 9 0 2 9 4 20 4 11 0 20 -4 20 -9z m60 -31 c-24 -15
-36 -11 -14 4 10 8 21 12 24 10 2 -3 -2 -9 -10 -14z"/>
<path d="M12520 7590 c0 -5 5 -10 10 -10 6 0 10 5 10 10 0 6 -4 10 -10 10 -5
0 -10 -4 -10 -10z"/>
<path d="M12580 7582 c0 -9 -7 -11 -19 -7 -11 3 -23 1 -26 -6 -5 -7 -10 -7
-14 -1 -4 6 -27 5 -66 -3 l-60 -12 39 -11 c22 -6 43 -9 48 -6 4 3 8 3 8 -1 0
-3 -10 -10 -22 -16 -42 -18 -73 -39 -63 -40 6 -1 17 -2 25 -3 10 -1 17 -17 22
-55 8 -67 25 -101 52 -102 21 0 21 0 -1 -9 -12 -5 -27 -19 -33 -30 -9 -18 -8
-25 6 -41 9 -10 13 -19 8 -19 -5 0 -10 -27 -11 -60 -1 -48 2 -60 14 -60 12 0
13 -3 4 -14 -9 -10 -8 -15 4 -20 9 -3 15 -18 15 -38 0 -17 5 -58 12 -90 12
-58 29 -73 46 -42 13 23 75 22 98 -1 17 -17 17 -18 2 -12 -10 3 -21 1 -25 -7
-10 -16 -63 -27 -63 -13 0 7 -4 7 -12 -1 -7 -7 -20 -12 -29 -12 -10 0 -20 -9
-24 -19 -8 -25 -104 -71 -297 -143 -15 -6 -26 -14 -23 -18 13 -21 -87 -80
-143 -84 -20 -2 -46 -7 -57 -11 -18 -8 -18 -7 -7 8 8 9 35 24 60 33 26 9 54
24 62 32 13 13 11 14 -19 8 -40 -7 -152 -56 -166 -72 -21 -24 -189 -117 -192
-107 -3 7 -22 1 -49 -14 -48 -27 -66 -24 -46 8 10 16 0 13 -57 -16 -47 -23
-88 -36 -128 -39 -58 -5 -58 -5 -463 -207 -19 -9 -97 -38 -174 -64 -76 -25
-170 -62 -210 -83 -52 -27 -88 -38 -135 -42 -39 -3 -66 -10 -69 -17 -2 -8 5
-13 17 -13 45 0 16 -23 -94 -77 -64 -30 -120 -64 -126 -74 -5 -11 -15 -19 -23
-19 -7 0 -22 -11 -34 -25 -12 -14 -29 -25 -37 -25 -26 0 13 45 65 74 25 14 56
37 69 51 37 39 1 32 -67 -14 -71 -48 -130 -78 -201 -102 -68 -24 -75 -23 -31
2 33 19 34 20 7 16 -22 -3 -25 -2 -16 9 17 21 3 17 -60 -15 -31 -16 -78 -38
-106 -49 -27 -10 -49 -24 -48 -31 2 -6 -3 -11 -10 -12 -46 -3 -61 -9 -81 -31
-12 -14 -39 -33 -60 -42 -48 -20 -55 -20 -30 0 18 14 18 15 -6 8 -14 -4 -46
-26 -71 -49 -54 -50 -107 -79 -181 -99 -29 -8 -84 -28 -123 -45 -38 -17 -77
-31 -85 -31 -33 0 -165 -64 -221 -107 -33 -25 -62 -43 -65 -40 -3 3 -26 -5
-52 -19 -47 -25 -64 -25 -42 1 7 8 9 15 4 15 -5 0 6 9 25 21 66 40 22 29 -63
-15 -48 -25 -93 -46 -101 -46 -8 0 -15 -6 -15 -14 0 -15 -54 -40 -112 -50 -29
-5 -38 -12 -38 -26 0 -11 -4 -20 -10 -20 -5 0 -7 7 -4 15 8 21 -5 19 -50 -9
-22 -13 -45 -22 -51 -19 -7 2 -42 -7 -79 -21 -56 -21 -68 -23 -72 -11 -8 19
-31 7 -85 -42 -48 -43 -123 -66 -170 -53 -23 7 -38 5 -58 -6 -23 -14 -24 -15
-4 -11 25 6 41 -9 26 -24 -6 -6 -50 -25 -100 -43 -49 -19 -148 -64 -220 -100
-136 -69 -166 -79 -142 -49 9 12 3 10 -18 -5 -18 -13 -35 -27 -38 -32 -4 -6
-15 -10 -26 -10 -10 0 -24 -9 -31 -21 -27 -44 -96 -78 -220 -108 -67 -17 -144
-42 -171 -56 -57 -29 -61 -30 -53 -9 3 9 2 14 -2 12 -26 -10 -181 -102 -202
-119 l-25 -20 35 7 c19 4 39 13 45 21 15 20 85 30 85 12 0 -22 -13 -37 -43
-48 -20 -8 -27 -7 -27 2 -1 7 -6 5 -14 -5 -8 -11 -27 -18 -49 -18 -20 0 -39
-4 -42 -10 -3 -6 -15 -10 -25 -10 -10 0 -20 -4 -22 -9 -1 -5 -16 -12 -33 -16
-23 -5 -26 -4 -15 4 12 9 9 11 -16 11 -23 0 -33 -5 -37 -19 -2 -11 -33 -40
-67 -65 l-62 -46 38 0 c39 -1 38 -1 -41 -42 -43 -22 -81 -36 -83 -30 -1 5 -11
8 -21 5 -26 -7 -33 10 -15 35 11 16 26 22 50 22 24 0 33 -4 28 -12 -4 -6 -3
-8 4 -5 14 10 62 93 62 109 0 10 -2 10 -9 -1 -5 -8 -18 -15 -28 -16 -10 0 -25
-5 -33 -10 -8 -5 -31 -10 -50 -11 -54 -3 -258 -70 -299 -98 -20 -14 -90 -63
-156 -110 -102 -72 -278 -176 -298 -176 -4 0 -4 6 -1 13 3 8 -2 20 -11 27 -21
17 -19 30 4 30 29 0 269 124 248 128 -9 2 -59 -20 -110 -49 -50 -28 -103 -51
-116 -50 -44 2 -98 -18 -104 -39 -4 -14 -43 -38 -129 -79 -67 -32 -125 -56
-128 -54 -8 7 42 44 73 55 15 6 26 12 24 15 -10 9 -75 -26 -124 -69 -39 -33
-77 -53 -146 -76 -51 -18 -103 -32 -116 -32 -51 0 -436 -168 -524 -228 l-44
-31 5 27 c4 23 -8 15 -84 -58 -49 -47 -110 -105 -135 -128 l-46 -43 -26 39
c-34 48 -34 65 1 97 l27 26 -67 -25 c-37 -13 -77 -30 -90 -37 -22 -13 -22 -13
-3 -17 49 -10 54 -42 7 -42 -15 0 -66 -7 -114 -16 -61 -11 -85 -20 -82 -29 6
-15 -43 -75 -62 -75 -7 0 -16 11 -20 25 -3 14 -8 25 -11 25 -2 0 -31 -23 -65
-50 -52 -44 -62 -49 -72 -35 -6 8 -22 16 -36 16 -31 2 -172 -54 -199 -78 -10
-10 -37 -29 -60 -43 -22 -13 -41 -29 -41 -35 0 -6 -17 -23 -38 -37 -20 -13
-61 -41 -91 -62 -61 -41 -86 -43 -86 -6 0 45 -69 40 -97 -7 -28 -47 -170 -194
-232 -240 -33 -24 -69 -43 -84 -43 -14 0 -50 -14 -80 -31 -30 -17 -56 -28 -59
-26 -2 3 59 63 136 133 140 127 150 143 94 144 -30 0 -29 14 3 39 35 28 30 27
-80 -14 -87 -33 -164 -84 -149 -99 3 -3 35 10 70 30 36 20 67 34 70 31 11 -11
-20 -49 -72 -88 -30 -23 -53 -45 -50 -49 3 -5 -9 -12 -27 -15 -18 -4 -59 -20
-90 -36 -52 -26 -98 -37 -98 -24 0 4 7 19 15 35 9 17 13 30 10 30 -3 0 -41
-18 -85 -40 -88 -44 -108 -50 -70 -20 40 33 -4 13 -92 -41 -43 -26 -107 -55
-142 -64 -36 -10 -64 -22 -63 -28 3 -13 -57 -30 -61 -17 -2 6 -15 10 -28 10
-13 0 -24 5 -24 10 0 10 19 14 53 11 9 -1 17 3 17 8 0 6 -4 11 -8 11 -4 0 -25
15 -45 34 -37 34 -39 34 -80 22 -52 -15 -56 -40 -13 -77 27 -23 29 -28 17 -43
-13 -15 -19 -12 -62 36 -54 59 -58 68 -31 68 11 0 27 9 38 21 10 11 26 18 36
16 10 -3 18 -1 18 3 0 5 8 10 17 12 13 2 1 18 -46 63 -35 33 -73 70 -84 82
-15 17 -24 20 -42 13 -13 -5 -32 -6 -44 -3 -11 3 -28 2 -37 -1 -15 -6 -14 -10
8 -34 13 -15 32 -38 41 -52 9 -14 24 -35 34 -48 14 -20 14 -25 2 -33 -10 -7
-3 -8 21 -4 33 6 34 5 16 -9 -19 -16 -19 -17 -1 -53 10 -21 18 -41 17 -45 -1
-4 12 -15 28 -23 18 -9 28 -21 24 -27 -5 -7 5 -9 31 -4 35 7 40 5 67 -28 16
-20 33 -36 38 -36 4 0 13 13 20 29 l12 29 36 -21 c57 -32 85 -59 70 -69 -7 -4
-23 -8 -36 -8 -32 0 -36 -20 -12 -74 36 -86 25 -94 -69 -46 -71 35 -86 29 -28
-13 48 -35 59 -47 52 -64 -2 -7 11 -27 29 -45 45 -43 112 -96 102 -80 -18 30
7 7 65 -60 48 -57 67 -72 85 -70 45 6 212 -87 197 -110 -7 -12 237 -253 341
-338 34 -28 73 -68 87 -89 22 -36 27 -38 61 -33 45 6 112 -15 234 -73 110 -51
162 -86 178 -116 16 -32 115 -84 239 -124 59 -19 133 -51 165 -71 87 -55 102
-82 56 -103 -23 -10 -32 -8 -73 15 -25 15 -60 38 -77 51 -17 12 -36 23 -43 23
-6 0 -30 9 -51 20 -22 11 -40 19 -40 16 0 -11 344 -207 445 -253 22 -10 42
-21 45 -24 12 -14 138 -72 161 -74 14 -1 31 -5 37 -9 7 -4 12 -3 12 3 0 5 -10
13 -22 17 -12 3 -37 13 -57 22 -20 9 -39 15 -43 14 -12 -3 -9 12 7 35 12 17
12 23 2 27 -6 4 -2 4 11 2 12 -2 22 -1 22 4 0 4 -10 10 -22 14 -18 5 -20 8
-10 15 10 6 2 11 -25 15 -22 5 -52 21 -70 39 -35 33 -43 53 -18 43 8 -3 15 -3
15 0 0 2 -11 9 -25 14 -14 5 -67 36 -117 68 -51 32 -163 93 -248 134 -85 41
-177 90 -205 110 -27 19 -104 68 -171 108 -66 40 -125 82 -130 93 -5 11 -25
32 -44 46 l-35 25 30 -34 30 -33 -30 20 c-37 26 -155 137 -135 127 8 -4 29
-16 45 -26 23 -15 20 -11 -10 16 -22 20 -51 39 -65 43 -45 11 -185 124 -195
156 -3 12 -55 67 -114 122 -59 55 -116 116 -127 135 -27 49 -273 300 -294 300
-10 0 -23 6 -29 14 -9 10 -6 17 13 29 13 9 23 24 22 34 -1 15 33 29 189 79
105 34 213 67 240 73 28 7 131 52 230 102 99 49 207 98 240 109 115 37 180 61
243 90 35 17 69 30 77 30 27 0 15 -17 -23 -33 l-37 -15 50 5 c44 5 89 23 57
23 -21 0 -13 17 11 24 21 6 21 7 3 17 -17 10 -16 12 10 30 16 10 39 19 52 19
12 0 44 11 70 24 27 13 65 28 86 31 38 8 217 99 271 139 17 12 63 34 102 50
40 15 75 32 79 37 3 5 14 5 26 -2 16 -9 26 -7 49 10 l28 21 16 -24 c9 -13 26
-27 39 -30 35 -9 80 -47 66 -56 -19 -12 80 -80 200 -140 58 -29 135 -72 171
-96 88 -58 170 -92 374 -154 94 -29 178 -57 188 -62 10 -5 21 -7 24 -4 3 2
-50 32 -117 66 -121 61 -145 79 -80 60 70 -20 10 15 -78 45 -48 16 -86 34 -84
39 3 9 -169 86 -177 79 -3 -2 5 -10 17 -19 12 -8 22 -20 22 -26 0 -6 -10 -3
-23 6 -12 9 -43 27 -69 41 -31 17 -50 34 -54 50 -9 36 -63 74 -204 145 -135
67 -197 108 -183 120 4 4 27 11 51 15 35 6 42 4 42 -9 0 -17 41 3 180 87 36
22 73 40 83 39 10 0 52 17 93 39 41 21 85 39 98 39 35 0 150 40 435 151 139
55 311 119 381 142 79 26 130 48 133 57 2 10 27 20 63 28 32 6 72 19 89 28 16
8 38 13 48 10 23 -6 269 87 321 121 29 19 37 21 33 9 -6 -15 -4 -15 23 -1 37
19 46 19 29 -1 -11 -13 -5 -12 26 4 63 33 85 55 99 97 12 34 20 41 50 47 44 9
108 41 125 62 15 17 66 23 56 6 -3 -6 -2 -10 4 -10 16 0 182 66 241 95 149 75
194 96 293 135 60 23 119 53 134 69 26 25 50 34 258 98 28 9 73 26 101 39 27
13 78 31 112 40 55 15 83 34 50 34 -7 0 -4 8 7 20 12 12 61 30 125 45 147 36
205 56 190 65 -22 14 27 22 161 29 100 5 125 3 117 -6 -8 -10 -1 -10 28 1 29
10 40 19 42 38 2 14 15 31 31 41 27 16 29 16 42 -4 13 -19 16 -19 59 -4 25 9
99 46 165 82 66 37 145 76 175 88 41 15 55 25 55 40 0 16 15 24 80 43 202 60
277 86 300 104 13 10 33 21 43 23 11 2 50 19 88 39 64 32 67 35 36 36 -18 0
-41 -6 -52 -12 -16 -10 -22 -10 -28 -1 -5 8 -13 9 -22 3 -23 -14 -40 -12 -40
6 0 11 6 13 19 9 11 -3 22 -1 26 5 3 5 14 10 23 10 10 0 35 9 56 21 48 25 60
17 15 -10 -43 -26 -27 -27 26 -1 22 11 46 19 54 20 8 0 43 16 79 35 62 35 96
41 56 10 -19 -14 -19 -14 2 -15 35 0 121 34 277 110 112 55 157 72 188 72 26
-1 73 13 132 39 50 21 94 39 99 39 13 0 9 -54 -5 -75 -8 -11 -19 -38 -25 -60
-6 -22 -23 -74 -37 -115 -15 -41 -31 -97 -35 -125 -11 -69 -110 -338 -172
-465 -28 -58 -62 -130 -76 -160 -13 -30 -57 -104 -97 -165 -40 -60 -87 -138
-104 -173 -18 -35 -42 -67 -54 -73 -34 -16 -87 -102 -124 -204 -40 -107 -44
-116 -105 -194 -55 -70 -82 -81 -45 -18 17 29 23 48 17 58 -13 21 -29 2 -90
-111 -28 -52 -63 -109 -78 -126 -15 -16 -5 -8 21 19 26 27 50 47 52 45 14 -13
-161 -271 -179 -265 -6 2 -10 12 -10 21 3 33 -31 14 -100 -57 -39 -41 -92 -91
-118 -111 -27 -21 -48 -44 -48 -51 0 -8 -20 -26 -45 -40 -35 -21 -53 -26 -82
-21 -42 7 -52 2 -71 -32 -12 -22 -12 -22 7 -13 31 17 66 13 86 -9 10 -11 24
-20 31 -20 39 0 124 66 377 294 139 126 184 175 193 212 4 14 32 40 70 65 76
49 133 111 179 194 50 88 53 99 27 90 -30 -9 -28 9 7 70 33 57 61 87 61 64 0
-8 15 9 34 36 18 28 81 108 139 179 96 116 112 143 175 280 69 150 124 299
136 366 7 35 7 35 -8 10 -14 -23 -15 -23 -16 -4 0 11 -5 25 -11 31 -24 24 47
190 76 179 20 -7 23 -1 46 116 12 57 27 110 34 118 26 30 45 111 45 189 l0 78
46 18 c26 10 75 37 110 61 35 24 70 41 77 38 16 -6 170 47 242 83 28 14 82 45
121 69 39 25 78 42 86 39 18 -7 372 109 483 157 137 61 203 85 435 163 230 78
294 107 327 149 11 13 45 38 76 56 62 35 71 44 32 34 -28 -7 -33 7 -10 26 8 7
15 18 15 25 0 12 71 35 107 35 15 -1 15 -3 -6 -21 -34 -28 -20 -34 35 -15 26
9 50 16 52 16 3 0 2 -19 -2 -42 -4 -24 -7 -108 -6 -188 2 -282 -46 -820 -97
-1075 l-5 -30 22 20 22 20 -7 -53 c-10 -74 -19 -105 -32 -109 -6 -2 -14 6 -17
19 -3 13 -3 -15 -1 -62 3 -58 0 -94 -10 -115 l-13 -30 -1 43 c-1 27 -5 41 -11
37 -7 -4 -8 -35 -4 -83 7 -87 -12 -180 -44 -216 -10 -11 -29 -59 -42 -106 -36
-133 -35 -129 -10 -100 l21 25 -7 -40 c-4 -22 -8 -53 -9 -70 -1 -16 -11 -48
-22 -70 -11 -22 -46 -110 -78 -195 -67 -182 -128 -335 -160 -405 -12 -27 -33
-81 -45 -120 -13 -38 -42 -109 -66 -157 -46 -92 -50 -103 -34 -93 6 3 10 -3
10 -14 0 -28 -21 -71 -34 -70 -28 3 -38 -7 -104 -103 -38 -57 -79 -112 -91
-122 -11 -11 -21 -26 -21 -34 0 -8 -23 -55 -50 -104 -34 -59 -49 -96 -45 -109
5 -15 2 -19 -19 -19 -27 0 -25 2 -115 -135 -58 -88 -145 -196 -344 -425 -65
-75 -94 -116 -86 -121 22 -13 1 -37 -71 -80 -63 -37 -75 -49 -95 -94 -12 -29
-30 -55 -39 -58 -9 -4 -15 -12 -14 -18 4 -15 -394 -369 -602 -536 -254 -204
-513 -371 -726 -466 -105 -48 -149 -79 -155 -111 -3 -14 -33 -29 -119 -58 -63
-22 -124 -48 -135 -58 -11 -10 -66 -41 -122 -69 -57 -28 -103 -54 -103 -56 0
-3 9 -1 19 5 25 13 32 13 29 -2 -4 -15 40 -25 112 -27 30 -1 61 -5 69 -10 10
-6 23 -3 41 10 14 11 78 37 141 58 136 45 206 80 258 126 39 36 64 47 41 20
-21 -25 -3 -17 31 15 18 16 65 46 104 66 132 69 694 429 711 455 3 5 0 9 -6 9
-6 0 -8 6 -4 13 6 9 4 9 -7 -1 -15 -14 -29 -16 -29 -3 0 10 60 37 73 33 13 -4
67 32 64 42 -6 17 299 271 349 292 32 14 53 44 31 44 -7 1 5 16 26 34 20 18
37 38 37 44 0 15 78 72 98 72 13 0 12 -4 -3 -22 -9 -13 19 15 64 62 44 46 81
90 81 97 0 8 42 64 93 126 117 140 268 339 334 437 70 106 136 221 129 227 -9
9 30 77 118 208 48 71 100 163 122 216 29 71 50 105 85 139 54 52 84 127 93
229 4 45 12 71 26 86 11 12 20 33 20 46 0 53 29 124 55 136 21 9 25 9 25 -5 0
-13 3 -12 15 4 23 30 72 163 105 286 17 62 42 130 56 150 26 41 31 62 12 56
-7 -2 -29 -43 -48 -91 -38 -96 -56 -112 -45 -40 13 89 46 175 100 257 64 98
111 214 126 311 6 38 16 81 21 95 13 32 20 180 9 180 -4 0 -13 -30 -19 -67
-10 -65 -10 -63 -7 52 2 66 9 145 16 175 l13 55 6 -45 c4 -33 7 -40 13 -27 4
10 7 33 8 50 1 43 13 74 23 59 4 -7 -2 -80 -14 -162 -12 -83 -20 -159 -17
-168 2 -9 7 6 11 33 7 52 15 102 41 275 8 58 15 127 15 153 0 30 4 46 10 42 6
-4 10 14 11 47 1 37 3 46 8 29 5 -18 10 0 19 62 7 48 15 94 19 103 5 14 1 16
-22 12 l-28 -6 6 77 c4 51 16 103 36 152 16 41 32 101 35 134 3 33 3 51 0 40
-3 -11 -10 -24 -16 -30 -11 -11 -3 89 13 160 10 48 12 119 2 129 -4 3 -13 -6
-20 -21 -13 -28 -13 -28 -7 10 3 23 -4 78 -17 138 -19 84 -20 103 -9 123 9 17
11 45 6 93 -10 102 -15 121 -36 126 -16 4 -17 10 -9 51 5 26 11 52 14 57 4 5
-1 16 -9 25 -19 18 -21 55 -4 72 9 9 9 12 0 12 -7 0 -12 7 -12 15 0 8 9 15 20
15 11 0 20 4 20 10 0 11 -41 35 -55 32 -5 -1 -3 3 6 10 21 17 8 76 -21 100
-14 11 -20 24 -16 34 4 9 1 23 -6 31 -10 12 -9 18 6 28 16 12 15 15 -18 30
-49 23 -52 32 -15 40 23 5 29 11 23 23 -4 10 -7 25 -8 35 0 21 -15 22 -22 2
-7 -17 -44 -21 -44 -4 0 6 14 22 30 36 17 13 30 28 30 33 0 14 -39 56 -40 42z
m-25 -472 c-3 -5 -14 -10 -23 -10 -15 0 -15 2 -2 10 20 13 33 13 25 0z m35
-41 c-20 -8 -22 -12 -10 -19 8 -5 26 -10 40 -11 l25 0 -23 -12 c-18 -8 -25 -8
-32 2 -5 8 -16 11 -31 6 -16 -4 -19 -3 -11 3 7 5 12 13 11 18 -3 19 2 24 29
23 l27 0 -25 -10z m-55 -269 c-3 -5 -12 -10 -18 -10 -7 0 -6 4 3 10 19 12 23
12 15 0z m-2545 -1045 c0 -8 -4 -15 -10 -15 -5 0 -10 7 -10 15 0 8 5 15 10 15
6 0 10 -7 10 -15z m32 -7 c-6 -6 -15 -8 -19 -4 -4 4 -1 11 7 16 19 12 27 3 12
-12z m-216 -39 c4 -8 9 -8 17 0 6 6 27 11 47 11 l35 0 -33 -20 c-31 -19 -92
-27 -105 -13 -8 7 11 33 24 33 4 0 11 -5 15 -11z m-236 -126 c0 -11 -110 -63
-110 -53 0 5 5 12 10 15 6 4 8 11 4 16 -3 6 4 7 18 4 16 -4 29 -1 37 9 14 16
41 22 41 9z m25 -73 c3 -5 5 -10 3 -10 -2 0 -18 -4 -36 -9 -37 -11 -43 -1 -9
15 30 15 35 16 42 4z m-135 -49 c0 -6 -4 -13 -10 -16 -5 -3 -10 1 -10 9 0 9 5
16 10 16 6 0 10 -4 10 -9z m-40 -31 c0 -5 -7 -10 -16 -10 -8 0 -12 5 -9 10 3
6 10 10 16 10 5 0 9 -4 9 -10z m-160 -9 c0 -5 -13 -11 -30 -13 -36 -5 -39 -1
-7 12 29 12 37 12 37 1z m-185 -71 c-3 -5 -12 -10 -18 -10 -7 0 -6 4 3 10 19
12 23 12 15 0z m-95 -118 c0 -15 -53 -32 -66 -21 -7 6 -18 8 -24 4 -5 -3 -15
-3 -21 1 -17 10 10 24 49 24 22 0 31 4 26 11 -4 8 0 8 15 0 11 -7 21 -15 21
-19z m-117 -99 c-7 -2 -19 -2 -25 0 -7 3 -2 5 12 5 14 0 19 -2 13 -5z m-453
-67 c0 -3 -4 -8 -10 -11 -5 -3 -10 -1 -10 4 0 6 5 11 10 11 6 0 10 -2 10 -4z
m-120 -36 c0 -5 -12 -10 -27 -9 -25 0 -26 1 -8 9 27 12 35 12 35 0z m-447
-227 c-7 -2 -19 -2 -25 0 -7 3 -2 5 12 5 14 0 19 -2 13 -5z m-863 -357 c0 -9
-40 -13 -46 -5 -3 5 6 9 20 9 14 0 26 -2 26 -4z m-115 -16 c19 -8 19 -9 -2 -9
-12 -1 -25 4 -28 9 -7 12 2 12 30 0z m-780 -290 c-27 -12 -43 -12 -25 0 8 5
22 9 30 9 10 0 8 -3 -5 -9z m-3295 -1325 c0 -9 -9 -15 -22 -15 -22 1 -23 1 -4
15 25 19 26 19 26 0z m-280 -99 c0 -3 -4 -8 -10 -11 -5 -3 -10 -1 -10 4 0 6 5
11 10 11 6 0 10 -2 10 -4z m-1030 -156 c0 -5 -2 -10 -4 -10 -3 0 -8 5 -11 10
-3 6 -1 10 4 10 6 0 11 -4 11 -10z m766 -45 c-37 -19 -79 -35 -91 -35 -13 0
-27 -4 -30 -10 -3 -5 -25 -10 -48 -10 l-42 1 39 19 c22 11 51 20 65 20 14 0
51 11 81 24 84 36 104 29 26 -9z m-161 -15 c-3 -5 -12 -10 -19 -10 -7 0 -21
-9 -30 -19 -23 -25 -60 -35 -52 -14 4 10 2 14 -6 10 -48 -18 -58 -18 -58 -2 0
10 7 15 18 14 9 -1 24 1 32 4 55 22 125 33 115 17z m1455 -1760 c0 -5 -9 -10
-20 -10 -11 0 -20 5 -20 10 0 6 9 10 20 10 11 0 20 -4 20 -10z m93 -26 c-7 -3
-9 -12 -6 -20 6 -16 -14 -19 -36 -5 -11 7 -10 11 5 20 11 6 26 10 34 10 9 0
10 -2 3 -5z"/>
<path d="M4590 7350 c-18 -12 -2 -12 25 0 13 6 15 9 5 9 -8 0 -22 -4 -30 -9z"/>
<path d="M4312 7282 c-11 -11 -33 -28 -49 -36 l-28 -15 30 -1 c17 0 75 13 130
29 l100 29 -73 -5 c-54 -5 -76 -3 -82 7 -6 9 -13 7 -28 -8z"/>
<path d="M5550 7037 c-112 -35 -550 -214 -571 -233 -11 -10 -19 -30 -19 -47 0
-29 446 -1157 476 -1204 8 -12 14 -29 14 -38 0 -8 8 -15 19 -15 10 0 21 -9 24
-20 7 -25 27 -25 84 1 51 23 52 37 0 20 -19 -6 -42 -9 -52 -5 -14 6 -12 9 14
20 17 7 31 18 31 24 0 5 9 10 20 10 11 0 20 5 20 10 0 6 -25 10 -56 10 -46 0
-53 2 -42 13 7 8 31 16 53 20 22 3 51 9 64 13 21 6 23 4 18 -11 -5 -13 -3 -16
8 -11 9 3 15 0 15 -9 0 -8 5 -15 10 -15 6 0 10 -4 10 -10 0 -5 -8 -10 -18 -10
-10 0 -27 -7 -38 -16 -18 -14 -18 -15 5 -8 20 5 23 3 18 -10 -5 -14 -3 -15 13
-6 10 5 38 10 63 10 24 0 46 3 50 6 5 6 -11 53 -23 64 -3 3 -6 12 -8 20 -1 8
-14 44 -28 79 -14 35 -21 67 -17 72 4 4 43 21 87 39 65 26 81 29 95 18 9 -7
96 -80 194 -161 l177 -148 45 27 c45 26 71 27 138 8 24 -7 21 -24 -4 -24 -11
0 -33 -6 -47 -14 -15 -8 -40 -19 -55 -25 l-29 -11 49 -41 c26 -22 63 -48 80
-57 31 -14 37 -14 90 3 44 13 53 19 39 25 -16 5 -15 8 12 19 18 8 32 20 32 28
0 7 6 15 13 17 82 23 97 31 92 44 -3 10 0 12 10 8 29 -11 15 12 -32 54 -72 63
-85 66 -159 31 l-64 -30 -15 29 c-19 38 -19 40 6 40 15 0 19 -5 15 -15 -3 -8
-2 -15 2 -15 13 0 48 29 37 30 -5 1 5 7 24 14 l34 12 -206 163 c-114 89 -207
164 -207 167 0 2 20 33 45 69 59 86 85 173 85 282 0 102 -15 165 -74 307 -84
204 -163 302 -295 365 -71 34 -83 36 -186 38 -92 3 -122 -1 -185 -20z m173
-288 c80 -22 129 -85 196 -254 73 -185 51 -293 -74 -358 -72 -37 -250 -106
-256 -99 -8 8 -250 605 -246 607 1 1 61 25 132 53 165 64 186 68 248 51z m594
-905 c-3 -3 -12 -4 -19 -1 -8 3 -5 6 6 6 11 1 17 -2 13 -5z m-26 -23 c-7 -5
-10 -14 -7 -20 4 -6 2 -11 -3 -11 -6 0 -11 2 -11 4 0 2 -3 11 -6 20 -5 12 0
16 17 16 18 0 20 -3 10 -9z m-101 -99 c0 -15 -11 -21 -27 -15 -12 5 -12 7 -1
14 17 11 28 11 28 1z m240 -41 c0 -10 -24 -21 -43 -21 -7 0 -3 7 7 15 22 17
36 19 36 6z m-150 -46 c0 -10 -41 -25 -52 -19 -8 5 -5 10 8 15 22 9 44 11 44
4z m-27 -76 c-6 -6 -17 -8 -24 -3 -9 5 -8 9 7 14 23 9 31 3 17 -11z m210 -120
c-8 -8 -16 -8 -30 0 -16 9 -14 10 12 11 21 0 26 -3 18 -11z"/>
<path d="M4266 6519 c-121 -35 -566 -220 -566 -235 0 -13 15 -18 48 -17 7 1
11 -6 8 -16 -3 -9 -12 -54 -21 -101 l-16 -85 305 -755 c244 -607 309 -759 330
-775 27 -19 27 -19 94 4 103 35 155 63 171 93 14 25 11 37 -72 242 -48 118
-87 219 -87 224 0 6 48 29 108 53 194 77 306 142 323 187 5 13 13 21 18 18 5
-4 21 8 35 26 l25 33 -22 8 c-21 8 -21 9 -3 19 13 8 20 7 26 -2 10 -17 42 44
65 125 24 82 17 225 -17 320 -61 173 -146 366 -193 435 -58 87 -144 160 -225
192 -80 31 -240 35 -334 7z m205 -310 c56 -28 89 -81 167 -274 135 -330 114
-396 -159 -505 -71 -29 -131 -51 -133 -49 -7 7 -296 728 -296 737 0 10 217 97
275 111 49 11 98 4 146 -20z"/>
<path d="M2520 6500 c-13 -9 -13 -10 0 -10 8 0 22 5 30 10 13 9 13 10 0 10 -8
0 -22 -5 -30 -10z"/>
<path d="M11020 6255 c-7 -8 -8 -15 -2 -15 5 0 15 7 22 15 7 8 8 15 2 15 -5 0
-15 -7 -22 -15z"/>
<path d="M10265 5980 c-3 -5 1 -10 9 -10 8 0 18 5 21 10 3 6 -1 10 -9 10 -8 0
-18 -4 -21 -10z"/>
<path d="M2842 5923 c-25 -26 -39 -34 -58 -30 -13 2 -27 0 -30 -4 -8 -14 -24
-10 -24 5 0 10 -46 -4 -162 -50 -177 -70 -214 -97 -203 -142 3 -14 155 -395
336 -846 207 -516 337 -828 350 -838 30 -25 47 -23 151 19 100 40 128 61 128
96 0 12 -38 119 -85 236 -48 117 -85 215 -83 216 2 2 68 29 147 61 231 92 334
174 402 319 37 78 52 184 39 273 -13 93 -20 113 -99 311 -83 205 -131 286
-179 302 -26 8 -33 16 -29 30 7 28 -18 42 -63 36 -29 -4 -40 -1 -40 8 0 7 -7
16 -16 19 -19 7 -44 -10 -44 -30 0 -8 -12 -19 -27 -25 -22 -8 -24 -12 -13 -19
8 -6 11 -10 6 -10 -5 0 -3 -7 4 -15 7 -9 11 -16 9 -18 -50 -29 -71 -38 -76
-33 -4 3 -16 0 -27 -8 -12 -7 -36 -17 -54 -21 -33 -7 -33 -6 -30 26 3 36 -20
54 -29 21 -6 -23 -68 -40 -123 -33 -19 2 -10 20 13 23 12 2 21 9 20 16 -2 7 9
12 30 12 17 0 39 5 47 10 10 7 -7 8 -52 5 -69 -4 -84 5 -48 27 29 18 25 26
-13 23 -19 -2 -40 1 -48 6 -11 7 -10 11 6 23 13 10 17 18 10 24 -7 7 -21 -2
-43 -25z m498 -101 c0 -5 -11 -14 -25 -20 -21 -10 -25 -9 -25 4 0 8 4 13 9 9
5 -3 12 -1 16 5 7 12 25 13 25 2z m-836 -43 c-18 -20 -18 -21 -1 -30 27 -16
12 -26 -39 -28 -47 -1 -47 -1 -26 18 12 10 22 23 22 28 0 10 36 31 54 32 5 1
1 -8 -10 -20z m231 1 c-3 -5 -10 -10 -16 -10 -5 0 -9 5 -9 10 0 6 7 10 16 10
8 0 12 -4 9 -10z m640 -30 c3 -6 -4 -10 -17 -10 -18 0 -20 2 -8 10 19 12 18
12 25 0z m-735 -20 c0 -5 -9 -10 -20 -10 -11 0 -20 5 -20 10 0 6 9 10 20 10
11 0 20 -4 20 -10z m547 4 c-3 -3 -12 -4 -19 -1 -8 3 -5 6 6 6 11 1 17 -2 13
-5z m117 -9 c-25 -19 -38 -19 -22 0 7 8 19 14 27 15 11 0 9 -4 -5 -15z m-424
-4 c0 -13 -28 -22 -35 -11 -3 4 1 11 7 13 20 8 28 8 28 -2z m80 -1 c0 -5 -9
-14 -21 -20 -37 -21 -11 -23 46 -5 74 23 160 17 203 -13 31 -23 51 -25 64 -7
13 18 19 -3 7 -23 -11 -18 -10 -28 10 -67 39 -79 138 -329 151 -384 22 -94
-13 -179 -95 -227 -65 -38 -267 -116 -275 -107 -5 4 -67 154 -139 332 -72 179
-135 327 -139 330 -4 4 -9 15 -9 26 -1 11 -3 26 -5 34 -2 9 23 24 72 44 88 35
88 36 72 46 -9 5 -7 13 8 29 21 23 50 30 50 12z m-146 -25 c-4 -8 -11 -15 -16
-15 -6 0 -5 6 2 15 7 8 14 15 16 15 2 0 1 -7 -2 -15z m576 -8 c0 -12 -64 -47
-96 -53 -36 -6 -38 -6 -25 9 7 10 21 17 30 17 9 0 27 7 41 14 23 13 50 20 50
13z m-650 -37 c-8 -6 -24 -9 -35 -9 -15 0 -13 4 10 14 32 14 49 10 25 -5z
m-149 -23 c-1 -12 -15 -9 -19 4 -3 6 1 10 8 8 6 -3 11 -8 11 -12z m154 -6 c-3
-6 -11 -8 -17 -5 -6 4 -5 9 3 15 16 10 23 4 14 -10z m-38 -97 c-3 -3 -12 -4
-19 -1 -8 3 -5 6 6 6 11 1 17 -2 13 -5z"/>
<path d="M10030 5879 c0 -5 5 -7 10 -4 6 3 10 8 10 11 0 2 -4 4 -10 4 -5 0
-10 -5 -10 -11z"/>
<path d="M9984 5849 c-19 -22 -19 -22 4 -8 12 8 22 17 22 21 0 12 -6 9 -26
-13z"/>
<path d="M6568 5653 c-20 -5 -24 -23 -5 -23 17 0 41 17 31 22 -5 2 -17 3 -26
1z"/>
<path d="M6715 5470 c3 -5 8 -10 11 -10 2 0 4 5 4 10 0 6 -5 10 -11 10 -5 0
-7 -4 -4 -10z"/>
<path d="M1583 5447 c-18 -7 -33 -16 -33 -22 -1 -5 -9 -9 -18 -8 -24 3 -103
-28 -96 -38 3 -5 -1 -6 -9 -3 -21 8 -111 -40 -136 -72 -11 -14 -23 -40 -26
-58 -5 -25 172 -1469 191 -1554 2 -13 9 -20 14 -17 6 3 10 2 10 -4 0 -5 -5
-11 -11 -13 -14 -5 -2 -68 12 -68 6 0 7 -6 1 -15 -10 -19 3 -136 18 -165 6
-11 15 -20 21 -20 6 0 7 4 4 10 -3 5 5 12 19 16 13 3 27 12 30 21 3 8 10 11
16 8 5 -3 10 -1 10 5 0 8 -14 10 -42 6 l-43 -6 35 13 c19 8 36 21 38 30 3 17
45 24 97 18 11 -1 29 -2 41 -3 11 0 26 -9 33 -20 11 -18 10 -19 -23 -13 -29 6
-35 4 -41 -14 -4 -13 -21 -25 -46 -32 -21 -7 -39 -16 -39 -21 0 -12 28 -3 108
33 38 17 62 34 62 43 0 9 5 16 10 16 6 0 10 11 10 25 0 14 -4 25 -9 25 -5 0
-7 8 -4 18 2 10 -9 110 -26 223 -17 112 -28 205 -24 207 534 217 517 211 533
188 8 -11 24 -30 35 -41 11 -12 22 -25 24 -30 2 -6 17 -29 33 -53 29 -42 30
-43 54 -28 32 22 38 20 14 -4 -11 -11 -20 -24 -20 -28 0 -12 118 -174 138
-189 9 -7 26 -13 39 -13 31 0 202 66 225 87 45 40 32 60 -341 558 -29 39 -202
272 -384 520 -202 273 -345 458 -366 472 -37 25 -86 29 -138 10z m-23 -66 c0
-5 -9 -11 -20 -14 -11 -3 -18 -1 -15 3 3 5 -3 11 -12 13 -10 3 -3 5 15 6 17 0
32 -3 32 -8z m-90 -5 c0 -3 -4 -8 -10 -11 -5 -3 -10 -1 -10 4 0 6 5 11 10 11
6 0 10 -2 10 -4z m134 -41 c-4 -8 -1 -15 5 -15 6 0 8 -6 5 -14 -3 -8 -1 -17 5
-21 6 -3 14 0 17 8 4 11 13 12 47 3 23 -5 43 -10 43 -11 1 0 5 -11 9 -23 6
-22 6 -23 -17 -11 -25 14 -49 13 -59 -3 -4 -5 -13 -3 -22 6 -20 20 -27 20 -27
1 0 -9 -9 -15 -25 -15 -16 0 -25 6 -25 15 0 8 4 15 9 15 15 0 22 30 11 49 -10
20 -4 31 16 31 8 0 11 -6 8 -15z m-141 -64 c4 -1 7 -7 7 -15 0 -9 -8 -12 -24
-9 -31 6 -42 30 -13 27 12 -1 25 -3 30 -3z m57 -85 c0 -9 -7 -12 -20 -9 -11 3
-17 9 -14 14 8 14 34 10 34 -5z m384 8 c9 -3 13 -10 10 -15 -3 -5 1 -9 8 -9 7
0 2 -7 -11 -16 -19 -14 -25 -14 -32 -3 -6 10 -9 11 -9 2 0 -7 -12 -13 -28 -13
-15 0 -34 -6 -40 -12 -10 -10 -15 -10 -21 1 -6 8 -19 12 -35 9 -15 -3 -29 -2
-31 2 -3 4 20 11 50 15 30 3 57 10 60 15 3 5 12 7 20 4 8 -4 18 1 21 10 7 17
14 19 38 10z m-124 -18 c0 -2 -7 -6 -15 -10 -8 -3 -15 -1 -15 4 0 6 7 10 15
10 8 0 15 -2 15 -4z m-143 -98 c42 -47 444 -621 438 -626 -3 -3 -91 -40 -195
-82 -181 -73 -191 -76 -195 -56 -15 68 -112 762 -108 773 8 20 37 15 60 -9z
m724 -638 c-30 -28 -59 -50 -63 -50 -18 0 -6 20 20 34 15 8 38 26 51 40 14 14
29 26 35 26 6 0 -14 -23 -43 -50z m-236 -10 c-16 -11 -25 -20 -20 -20 14 0
-74 -78 -109 -96 -32 -17 -51 -7 -33 17 7 8 38 30 70 48 37 21 56 38 53 46 -3
8 4 15 17 18 46 9 51 6 22 -13z m135 -5 c-7 -8 -20 -15 -30 -15 -10 0 -23 -7
-30 -15 -7 -8 -17 -15 -23 -15 -19 0 22 34 56 47 42 15 41 15 27 -2z m-184
-123 c-3 -5 -16 -12 -28 -15 -22 -6 -22 -6 2 13 25 19 37 20 26 2z m484 -2 c0
-5 -4 -10 -10 -10 -5 0 -10 5 -10 10 0 6 5 10 10 10 6 0 10 -4 10 -10z m-660
-24 c0 -12 -73 -56 -94 -56 -19 0 7 18 34 23 16 4 35 16 42 27 15 24 18 25 18
6z m616 -60 c-10 -6 -32 -22 -47 -34 -22 -18 -29 -20 -29 -9 0 8 13 20 30 27
16 7 35 19 41 26 7 8 15 12 18 8 3 -3 -2 -11 -13 -18z m-69 -1 c-4 -10 -107
-25 -107 -15 0 3 5 11 10 16 14 14 101 12 97 -1z m-557 -27 c0 -19 -18 -43
-25 -36 -9 9 4 48 16 48 5 0 9 -6 9 -12z m525 -48 c-10 -11 -23 -20 -29 -20
-6 0 0 9 14 20 32 25 38 25 15 0z m-675 -27 c-8 -3 -33 -18 -55 -33 -45 -30
-75 -43 -75 -32 0 9 111 69 130 70 13 0 13 0 0 -5z m756 -150 c-2 -9 -8 -19
-14 -21 -6 -2 -8 5 -5 17 6 25 22 28 19 4z m-786 -178 c-14 -17 -105 -22 -95
-5 4 6 10 8 15 5 4 -3 19 -1 32 4 12 6 31 10 42 10 15 1 16 -2 6 -14z m-174
-180 c-23 -17 -36 -19 -36 -6 0 5 8 12 18 14 32 9 37 6 18 -8z m-26 -34 c0 -5
-7 -12 -16 -15 -14 -5 -15 -4 -4 9 14 17 20 19 20 6z m260 -31 c0 -5 -2 -10
-4 -10 -3 0 -8 5 -11 10 -3 6 -1 10 4 10 6 0 11 -4 11 -10z m-45 -10 c3 -5 -1
-10 -9 -10 -9 0 -16 5 -16 10 0 6 4 10 9 10 6 0 13 -4 16 -10z"/>
<path d="M5713 5445 c-18 -7 -45 -16 -60 -19 -15 -3 -56 -15 -90 -27 l-61 -21
15 -37 c28 -67 43 -91 58 -91 8 0 15 -4 15 -10 0 -5 -6 -10 -14 -10 -12 0 -8
-16 15 -72 32 -78 62 -118 89 -118 28 0 214 79 228 97 20 28 14 63 -29 170
-36 90 -43 101 -59 93 -13 -7 -20 -6 -24 5 -4 10 1 15 14 15 23 0 26 10 8 28
-16 16 -65 15 -105 -3z m101 -75 c-12 -12 -84 -20 -84 -9 0 8 29 15 70 18 16
1 21 -2 14 -9z m-96 -85 c-11 -11 -68 -23 -68 -15 0 5 10 11 23 13 35 7 51 7
45 2z"/>
<path d="M6673 5445 c-17 -7 -34 -11 -37 -8 -2 3 -15 -4 -27 -16 -13 -12 -20
-21 -16 -21 12 0 117 49 117 54 0 8 1 8 -37 -9z"/>
<path d="M9424 5344 c-18 -14 -18 -15 4 -4 12 6 22 13 22 15 0 8 -5 6 -26 -11z"/>
<path d="M11532 5145 c-63 -124 -80 -150 -67 -98 6 27 6 27 -13 10 -11 -10
-27 -35 -36 -56 l-17 -38 -44 12 c-24 6 -47 14 -51 18 -4 4 -22 7 -40 7 -18 0
-61 13 -96 29 -36 16 -80 32 -98 36 -18 4 -62 22 -97 41 l-64 33 30 -37 c17
-20 100 -109 186 -196 86 -88 152 -162 148 -165 -17 -12 -91 -108 -125 -161
-19 -30 -56 -81 -82 -113 -58 -71 -64 -73 174 35 96 44 180 81 185 84 6 2 62
-59 124 -136 63 -77 116 -139 118 -136 2 2 -1 23 -6 47 -18 77 -43 311 -34
319 4 4 78 33 163 64 85 32 160 61 168 65 8 4 -51 17 -135 30 -81 13 -164 26
-183 30 l-35 7 -5 197 -5 197 -63 -125z"/>
<path d="M8547 5243 c-4 -3 -22 -6 -39 -5 -18 1 -67 -10 -108 -23 -63 -20 -70
-23 -40 -24 19 0 42 4 50 9 10 6 22 4 38 -6 22 -14 26 -14 45 4 12 11 36 27
52 35 17 9 25 16 19 17 -6 0 -14 -3 -17 -7z"/>
<path d="M8183 5123 c9 -2 23 -2 30 0 6 3 -1 5 -18 5 -16 0 -22 -2 -12 -5z"/>
<path d="M11868 4853 c7 -3 16 -2 19 1 4 3 -2 6 -13 5 -11 0 -14 -3 -6 -6z"/>
<path d="M10515 3563 l-7 -28 -13 25 c-13 23 -14 18 -15 -56 0 -45 -3 -96 -6
-113 -5 -24 -3 -31 10 -31 9 0 16 -5 16 -11 0 -6 -7 -8 -15 -5 -8 3 -21 8 -27
11 -12 4 -34 -33 -54 -90 -18 -53 -46 -107 -67 -129 -12 -13 -28 -32 -36 -41
-13 -16 -15 -15 -35 4 -17 18 -19 24 -8 41 19 31 14 35 -13 10 -54 -50 -183
-14 -254 71 -24 28 -28 30 -40 15 -19 -23 -38 -20 -45 9 -4 14 -11 25 -16 25
-5 0 -12 -11 -16 -25 -7 -27 -22 -32 -44 -12 -7 6 -4 -1 8 -16 11 -16 19 -34
16 -42 -4 -9 0 -12 13 -9 13 3 53 -32 148 -132 72 -76 130 -142 130 -147 0 -5
-9 -15 -20 -21 -70 -37 -68 -36 -49 -57 17 -18 16 -21 -15 -60 -35 -43 -36
-58 -2 -39 12 6 21 7 21 1 0 -11 -61 -101 -108 -158 -19 -24 -31 -43 -27 -43
4 0 97 39 206 87 l200 86 28 -34 c16 -19 60 -73 99 -120 62 -75 68 -87 54 -97
-15 -9 -13 -11 10 -11 15 -1 30 -5 33 -11 5 -9 55 35 55 48 0 2 -13 2 -30 -1
-29 -6 -41 8 -23 27 4 3 12 22 19 41 11 34 11 35 -12 29 -26 -7 -33 13 -13 33
7 7 6 15 -4 25 -18 18 -34 118 -18 118 6 0 11 6 11 14 0 8 26 20 68 30 37 10
89 27 116 38 28 11 59 21 70 23 39 4 71 18 171 74 l100 56 -135 5 c-133 6
-180 14 -180 31 0 5 -9 9 -20 9 -12 0 -20 -7 -20 -16 0 -14 -11 -15 -87 -9
-49 4 -90 9 -93 12 -3 3 -6 56 -7 120 -1 63 -4 117 -6 120 -3 3 -1 18 5 35 9
25 8 31 -11 44 -33 23 -27 44 13 44 45 0 51 11 32 63 -8 23 -20 70 -27 105
-14 68 -23 77 -34 35z m-79 -337 c-29 -67 -50 -106 -58 -106 -5 0 -2 12 5 28
8 15 22 51 32 81 12 36 20 49 26 40 4 -7 2 -26 -5 -43z"/>
<path d="M8999 3462 c-51 -56 -78 -109 -39 -79 20 16 83 107 78 112 -2 3 -20
-12 -39 -33z"/>
<path d="M4111 3416 c-7 -8 -32 -23 -57 -33 -24 -10 -44 -21 -44 -24 0 -3 15
-12 33 -21 l33 -16 28 50 c27 48 31 73 7 44z"/>
<path d="M1000 3160 c0 -5 14 -10 30 -10 17 0 30 5 30 10 0 6 -13 10 -30 10
-16 0 -30 -4 -30 -10z"/>
<path d="M943 3133 c-20 -7 -15 -21 11 -39 19 -12 29 -13 43 -5 17 10 17 10
-1 11 -11 0 -16 3 -13 7 7 7 -11 34 -22 32 -3 0 -12 -3 -18 -6z"/>
<path d="M1014 3040 c-14 -5 -14 -8 1 -20 10 -8 33 -47 51 -87 24 -53 38 -73
52 -73 10 0 28 -9 40 -21 13 -12 27 -17 35 -12 6 4 23 8 37 9 14 0 31 2 38 2
8 1 -5 28 -32 67 -24 35 -50 78 -57 94 -7 16 -22 33 -34 36 -27 9 -111 12
-131 5z"/>
<path d="M8660 2979 c-49 -23 -84 -32 -140 -36 -69 -4 -73 -3 -56 11 34 28 10
28 -43 1 -29 -14 -55 -24 -60 -21 -4 3 -25 -6 -45 -20 -51 -35 -132 -70 -206
-89 -34 -9 -100 -38 -147 -65 -48 -27 -103 -55 -122 -61 -20 -7 -59 -29 -86
-50 -55 -42 -113 -69 -145 -69 -11 0 -76 -22 -144 -50 -270 -107 -664 -194
-863 -189 -54 1 -49 3 55 19 76 13 96 33 42 43 -16 4 -114 9 -217 13 -141 5
-196 3 -218 -6 -29 -13 -28 -13 47 -24 89 -13 105 -22 54 -30 -111 -18 -115
-20 -41 -26 l69 -5 -27 -18 c-15 -10 -25 -22 -23 -26 14 -23 92 -18 315 19
130 21 299 46 376 54 324 34 656 136 981 299 82 41 124 77 91 77 -15 0 33 33
94 65 45 23 47 23 42 5 -5 -19 0 -18 67 11 39 16 77 28 83 26 7 -3 26 4 44 15
18 10 72 32 121 48 91 29 178 75 187 97 7 20 -15 15 -85 -18z"/>
<path d="M2918 2960 c-33 -29 -33 -29 -8 -29 14 0 41 13 60 29 l34 30 -27 0
c-16 0 -40 -12 -59 -30z"/>
<path d="M1265 2810 c-3 -5 -23 -10 -44 -10 -51 0 -60 -28 -22 -64 33 -31 71
-35 71 -7 0 11 5 23 10 26 6 3 10 -1 10 -10 0 -12 5 -15 16 -11 9 3 20 6 25 6
15 0 10 19 -13 50 -22 31 -42 38 -53 20z"/>
<path d="M2575 2806 c-24 -10 -26 -13 -12 -19 9 -3 19 -1 23 4 3 6 14 9 23 6
10 -2 26 2 36 9 17 13 17 14 -11 14 -16 -1 -42 -7 -59 -14z"/>
<path d="M2228 2660 c-20 -11 -40 -25 -43 -31 -4 -6 16 1 44 15 28 15 51 29
51 31 0 9 -14 5 -52 -15z"/>
<path d="M4789 2581 c14 -10 37 -26 53 -35 24 -15 28 -15 28 -2 0 8 -21 24
-46 36 -57 25 -66 25 -35 1z"/>
<path d="M5085 2544 c126 -73 127 -73 120 -94 -7 -23 30 -35 145 -50 90 -12
211 -39 224 -51 6 -5 33 -9 61 -9 27 0 82 -9 120 -20 73 -21 185 -27 185 -10
0 6 -5 10 -11 10 -6 0 -59 7 -118 15 -116 17 -171 32 -171 45 0 20 94 25 250
15 67 -4 91 -3 80 4 -8 6 -38 11 -67 11 -28 0 -53 4 -55 10 -4 13 -239 61
-314 63 -54 2 -66 -1 -84 -21 -12 -13 -27 -21 -34 -19 -6 3 -31 13 -56 22 -25
10 -52 24 -60 30 -31 26 -80 45 -178 69 -55 14 -104 26 -109 26 -4 0 28 -21
72 -46z"/>
<path d="M7225 2545 c-55 -18 -93 -33 -85 -34 19 -1 153 33 205 53 38 14 39
15 10 14 -16 0 -75 -15 -130 -33z"/>
<path d="M6218 2313 c6 -2 18 -2 25 0 6 3 1 5 -13 5 -14 0 -19 -2 -12 -5z"/>
<path d="M1584 2245 c11 -8 29 -15 40 -15 25 0 19 4 -24 18 -32 11 -33 10 -16
-3z"/>
<path d="M8560 2189 c-8 -23 -20 -43 -27 -46 -18 -7 -17 -58 2 -76 17 -17 10
-27 -21 -27 -17 0 -25 -10 -37 -44 -8 -25 -11 -49 -7 -57 10 -15 -15 -69 -31
-69 -7 0 -5 10 5 25 9 13 16 32 16 41 0 16 -2 16 -20 -1 -11 -10 -17 -22 -14
-26 10 -16 -7 -50 -24 -47 -9 2 -25 -11 -36 -29 -12 -18 -30 -33 -41 -33 -18
-1 -17 -2 4 -11 18 -7 26 -5 37 8 7 10 14 22 14 27 0 5 3 6 6 3 11 -11 -25
-57 -44 -57 -10 0 -27 7 -38 15 -24 18 -38 19 -28 3 6 -10 4 -10 -7 0 -7 6
-25 12 -39 12 -14 0 -38 12 -53 26 -26 24 -123 63 -159 64 -10 0 -18 5 -18 10
0 21 -2 25 -17 43 -20 22 -39 22 -52 0 -8 -16 -11 -16 -28 -2 -24 20 -93 51
-93 41 1 -4 14 -23 30 -42 17 -19 30 -39 30 -45 0 -12 79 -91 97 -96 23 -8
194 -202 189 -215 -3 -8 3 -20 14 -26 11 -7 20 -21 20 -30 0 -15 -4 -16 -25
-6 -35 16 -56 -3 -37 -33 14 -22 12 -27 -37 -81 -29 -33 -38 -76 -12 -56 9 7
0 -6 -20 -27 -20 -22 -40 -50 -43 -62 -4 -11 -13 -27 -21 -33 -29 -24 -14 -29
30 -10 24 10 52 20 62 22 10 2 20 6 23 9 8 8 123 54 141 55 21 1 111 35 124
46 5 5 -12 2 -38 -6 -26 -8 -47 -12 -47 -10 0 7 92 45 101 42 7 -3 36 -39 164
-205 31 -40 55 -80 53 -90 -2 -14 4 -18 27 -18 17 0 41 -7 55 -14 24 -14 25
-13 8 6 -10 11 -18 24 -18 30 0 6 -7 13 -15 17 -8 3 -15 12 -15 19 0 8 -7 20
-15 27 -19 16 -20 50 -1 50 19 0 28 28 12 37 -19 11 -24 35 -15 61 7 19 5 24
-16 32 -21 8 -25 16 -25 54 0 25 5 48 11 51 6 4 8 14 5 22 -4 9 6 19 32 30 20
8 71 31 112 51 59 29 86 36 126 35 44 -2 53 1 57 18 10 36 -4 58 -39 65 -22 4
-34 12 -34 22 0 12 -3 13 -12 4 -8 -8 -17 -8 -31 -1 -10 6 -51 11 -91 11 -92
0 -126 6 -126 24 0 8 -4 14 -9 14 -5 0 -15 26 -21 57 -11 50 -10 78 4 196 1
15 -1 30 -6 33 -4 3 -8 12 -8 21 0 9 3 13 7 10 10 -11 55 44 49 60 -4 8 4 23
16 35 l23 19 -28 -4 c-23 -4 -27 -1 -22 14 4 11 2 19 -4 19 -6 0 -11 9 -11 20
0 33 -16 22 -30 -21z"/>
<path d="M3725 2010 c-61 -124 -83 -156 -71 -104 l6 29 -25 -30 c-14 -16 -28
-41 -32 -53 -5 -22 -9 -23 -52 -17 -25 4 -50 11 -55 16 -6 5 -24 9 -42 9 -17
0 -60 13 -95 29 -35 16 -79 32 -98 36 -18 4 -63 23 -100 42 -36 19 -64 33 -61
30 3 -3 68 -72 145 -154 77 -81 159 -167 183 -190 l44 -42 -51 -61 c-28 -34
-68 -87 -87 -118 -20 -31 -55 -79 -77 -105 -22 -26 -38 -50 -35 -52 2 -2 89
34 194 81 104 47 194 87 200 90 6 3 62 -58 124 -135 62 -77 117 -138 122 -135
4 3 4 13 -2 24 -5 10 -12 33 -14 51 -2 19 -12 90 -21 158 -9 68 -12 127 -8
131 4 3 85 35 178 70 94 34 171 64 173 65 2 2 -212 36 -320 51 -27 3 -49 7
-50 8 -1 0 -4 90 -7 199 l-6 199 -60 -122z"/>
<path d="M6180 1788 c-12 -32 -12 -32 -22 -10 -6 12 -14 22 -17 22 -3 0 -6
-50 -6 -110 0 -82 3 -110 12 -110 7 0 13 -5 13 -11 0 -6 -11 -8 -28 -4 -25 5
-30 2 -49 -37 -12 -24 -24 -54 -28 -68 -4 -14 -14 -34 -21 -45 -8 -11 -14 -28
-14 -38 0 -10 -5 -15 -10 -12 -6 3 -18 -8 -28 -24 -9 -17 -22 -29 -29 -27 -8
3 -10 -1 -6 -12 3 -9 -4 -4 -17 12 -20 24 -21 32 -11 48 11 17 10 18 -8 9 -11
-6 -22 -15 -25 -19 -3 -5 -31 -7 -63 -4 -42 3 -72 13 -108 35 -27 17 -53 36
-57 42 -4 5 -12 17 -17 25 -9 13 -14 13 -41 -3 -29 -18 -30 -18 -30 2 0 14 -6
21 -20 21 -12 0 -20 -7 -20 -16 0 -12 -6 -15 -21 -11 -19 5 -20 4 -4 -19 9
-14 13 -29 10 -34 -3 -5 0 -7 8 -4 9 3 58 -41 134 -120 116 -123 120 -126 150
-117 17 5 46 19 65 32 77 53 88 59 104 59 9 0 28 8 42 18 43 30 52 34 52 24 0
-6 -20 -22 -45 -36 -25 -15 -45 -31 -45 -35 0 -5 -11 -12 -25 -15 -14 -4 -25
-11 -25 -16 0 -5 7 -6 17 -3 11 4 14 3 9 -5 -4 -7 -20 -12 -36 -12 -16 0 -31
-4 -34 -9 -3 -4 -24 -11 -47 -15 -29 -5 -39 -11 -36 -20 3 -7 0 -19 -6 -26 -9
-10 -9 -11 2 -5 10 6 12 2 6 -14 -5 -15 -2 -21 9 -21 9 0 16 6 16 13 0 7 18
23 40 36 22 12 40 26 40 32 0 5 5 9 10 9 22 0 8 -20 -40 -56 -30 -23 -46 -42
-41 -47 5 -5 15 -6 22 -1 7 4 25 8 40 8 28 1 28 1 10 -18 -16 -16 -23 -17 -54
-7 -27 9 -42 9 -57 1 -11 -6 -20 -7 -20 -1 0 5 6 12 13 14 7 4 6 6 -4 6 -23 1
-44 -25 -27 -32 9 -4 6 -8 -7 -12 -11 -3 -33 -24 -49 -47 -26 -36 -27 -39 -7
-28 12 6 33 10 46 8 13 -2 25 2 26 7 3 13 49 49 54 43 11 -10 -21 -67 -42 -77
-13 -6 -23 -15 -23 -20 0 -5 -13 -12 -30 -16 -31 -7 -98 -79 -82 -89 5 -3 28
3 50 14 47 23 62 25 62 9 0 -8 4 -8 13 -2 6 5 42 22 80 37 37 16 67 32 67 37
0 13 -7 11 -35 -7 -13 -9 -32 -14 -42 -11 -13 3 -8 7 15 12 17 4 32 14 32 22
0 7 6 13 13 12 6 -1 23 1 37 4 14 4 34 8 45 10 11 1 26 6 33 11 7 4 19 2 28
-5 14 -12 14 -14 -2 -26 -10 -7 -15 -16 -11 -19 4 -4 13 -1 21 5 11 9 20 9 34
2 16 -8 27 -6 54 12 18 13 39 22 46 19 7 -2 12 5 12 17 0 12 5 21 10 21 6 0
10 7 10 15 0 8 14 17 35 21 19 3 33 10 30 14 -3 5 13 21 35 37 22 15 40 35 40
44 0 9 9 19 20 22 32 8 24 -18 -17 -58 -23 -22 -31 -35 -21 -35 28 0 83 28 96
49 14 24 32 28 32 6 0 -18 -2 -18 47 -1 41 14 223 114 223 122 0 2 -62 3 -137
2 -98 -2 -137 0 -140 9 -3 7 -10 10 -17 7 -8 -3 -16 2 -19 10 -8 21 -37 20
-37 0 0 -15 -10 -16 -87 -10 -101 8 -113 17 -109 81 2 30 -1 42 -10 38 -8 -3
-11 5 -10 21 0 14 6 26 12 26 14 0 25 71 13 84 -4 5 -3 20 2 35 9 21 7 29 -10
42 -33 27 -27 49 14 49 38 0 55 20 37 43 -5 6 -18 53 -27 102 -10 50 -19 91
-20 93 -2 2 -8 -12 -15 -30z m-84 -341 c-47 -111 -81 -152 -41 -49 12 31 25
65 29 75 3 10 10 15 16 12 6 -4 5 -17 -4 -38z m17 -161 c6 -16 -1 -26 -17 -26
-6 0 -4 5 4 10 10 6 11 10 3 10 -7 0 -13 5 -13 10 0 15 17 12 23 -4z m67 -21
c0 -3 -11 -16 -25 -28 -13 -12 -26 -28 -27 -36 -4 -19 -58 -71 -73 -71 -7 0
-18 -7 -25 -15 -14 -17 -75 -21 -65 -5 3 6 15 10 26 10 11 0 23 10 29 24 5 13
36 41 69 61 33 20 62 43 65 51 5 13 26 20 26 9z m-310 -55 c-19 -17 -39 -30
-44 -30 -12 0 -5 7 36 36 46 32 50 29 8 -6z m200 15 c0 -8 -7 -15 -16 -15 -14
0 -14 3 -4 15 7 8 14 15 16 15 2 0 4 -7 4 -15z m-45 -44 c-3 -6 -14 -11 -23
-11 -15 1 -15 2 2 15 21 16 32 13 21 -4z m26 -106 c-24 -14 -46 -23 -49 -20
-6 6 -6 6 38 27 54 25 60 21 11 -7z m-61 11 c0 -3 -4 -8 -10 -11 -5 -3 -10 -1
-10 4 0 6 5 11 10 11 6 0 10 -2 10 -4z m-170 -219 c0 -2 -10 -12 -21 -23 -22
-19 -22 -19 -8 4 12 19 29 30 29 19z"/>
<path d="M4048 1713 c6 -2 18 -2 25 0 6 3 1 5 -13 5 -14 0 -19 -2 -12 -5z"/>
<path d="M2594 1191 c6 -10 66 -33 66 -26 0 5 -56 35 -65 35 -3 0 -4 -4 -1 -9z"/>
<path d="M2666 1178 c5 -7 9 -17 9 -21 0 -12 145 -89 145 -77 0 5 -19 24 -42
41 -56 40 -123 75 -112 57z"/>
<path d="M2835 1120 c7 -11 79 -50 92 -50 9 0 -84 60 -93 60 -3 0 -2 -5 1 -10z"/>
<path d="M5731 1057 c-11 -14 -6 -27 10 -27 5 0 13 9 19 20 8 16 8 20 -3 20
-8 0 -20 -6 -26 -13z"/>
<path d="M2824 1021 c8 -12 97 -53 103 -47 3 2 -9 12 -26 20 -46 24 -83 37
-77 27z"/>
<path d="M6175 880 c-4 -6 -26 -20 -51 -31 -24 -12 -44 -24 -44 -28 0 -3 18
-27 41 -53 l40 -48 39 22 c21 13 34 25 29 29 -6 4 -6 15 1 33 8 21 7 28 -5 32
-8 4 -15 17 -15 30 0 24 -23 33 -35 14z m6 -44 c-17 -20 -51 -27 -51 -11 0 15
15 23 44 24 15 1 16 -2 7 -13z"/>
<path d="M3155 841 c-2 -5 4 -11 15 -14 11 -3 20 -2 20 3 0 12 -28 21 -35 11z"/>
<path d="M6221 730 c-29 -26 -31 -30 -14 -30 11 0 26 7 33 15 7 8 9 15 5 15
-4 0 -2 7 5 15 19 23 8 17 -29 -15z"/>
<path d="M3760 721 c0 -4 16 -13 36 -20 26 -9 39 -10 47 -2 6 6 7 11 2 11 -6
0 -27 4 -47 9 -21 5 -38 6 -38 2z"/>
<path d="M8865 650 c-19 -8 -19 -9 2 -9 12 -1 25 4 28 9 7 12 -2 12 -30 0z"/>
<path d="M4030 612 c0 -12 19 -26 26 -19 2 2 -2 10 -11 17 -9 8 -15 8 -15 2z"/>
<path d="M3884 585 c-28 -24 -28 -25 -6 -25 14 0 26 8 31 22 l8 22 12 -22 c7
-13 28 -26 54 -32 49 -13 145 -43 200 -63 23 -8 46 -26 57 -44 19 -32 93 -68
126 -61 15 2 12 8 -16 25 -33 21 -34 23 -10 22 14 0 59 -6 100 -14 41 -7 79
-10 84 -7 11 6 -140 58 -199 68 -22 4 -52 6 -68 5 -15 -1 -27 2 -26 6 4 27 -5
41 -36 56 -41 20 -67 21 -82 6 -7 -7 -26 -8 -52 -4 -41 7 -52 18 -28 29 6 3 0
4 -15 2 -16 -2 -28 0 -28 4 0 4 -11 11 -24 14 -13 3 -30 8 -38 11 -8 3 -27 -6
-44 -20z"/>
<path d="M8645 569 c-12 -19 5 -23 22 -6 16 16 16 17 1 17 -9 0 -20 -5 -23
-11z"/>
<path d="M8721 567 c-18 -18 -13 -25 14 -19 14 2 25 8 25 12 0 14 -27 19 -39
7z"/>
<path d="M4020 480 c19 -11 42 -19 50 -19 8 0 -3 9 -25 19 -53 24 -70 24 -25
0z"/>
<path d="M4540 410 c0 -5 7 -10 15 -10 8 0 15 5 15 10 0 6 -7 10 -15 10 -8 0
-15 -4 -15 -10z"/>
<path d="M4725 370 c3 -5 10 -10 16 -10 5 0 9 5 9 10 0 6 -7 10 -16 10 -8 0
-12 -4 -9 -10z"/>
<path d="M4474 363 c12 -12 86 -32 86 -23 0 5 -5 12 -10 15 -16 10 -85 17 -76
8z"/>
<path d="M4430 322 c0 -5 9 -12 21 -15 13 -3 19 -1 16 6 -5 15 -37 22 -37 9z"/>
<path d="M4923 313 c9 -2 23 -2 30 0 6 3 -1 5 -18 5 -16 0 -22 -2 -12 -5z"/>
<path d="M5003 283 c9 -2 23 -2 30 0 6 3 -1 5 -18 5 -16 0 -22 -2 -12 -5z"/>
<path d="M7680 214 c-63 -19 -144 -40 -180 -46 -44 -9 -56 -14 -38 -16 15 -2
78 10 140 27 62 17 131 33 152 35 22 3 46 12 55 20 22 23 7 20 -129 -20z"/>
<path d="M5646 231 c-3 -5 6 -12 22 -15 15 -4 35 -9 45 -12 27 -8 20 11 -8 24
-31 14 -52 15 -59 3z"/>
<path d="M4795 210 c-3 -5 1 -10 9 -10 9 0 16 5 16 10 0 6 -4 10 -9 10 -6 0
-13 -4 -16 -10z"/>
<path d="M7125 200 l-30 -8 33 -1 c17 0 32 4 32 9 0 6 -1 9 -2 9 -2 -1 -16 -5
-33 -9z"/>
<path d="M6826 181 c-9 -14 19 -21 59 -14 54 9 52 23 -4 23 -27 0 -52 -4 -55
-9z"/>
<path d="M5593 174 c3 -4 23 -8 44 -10 29 -2 33 -1 18 6 -23 10 -71 13 -62 4z"/>
<path d="M7023 148 c18 -6 36 -6 55 0 24 9 20 10 -28 10 -48 0 -52 -1 -27 -10z"/>
<path d="M6055 140 c3 -5 13 -10 21 -10 8 0 12 5 9 10 -3 6 -13 10 -21 10 -8
0 -12 -4 -9 -10z"/>
<path d="M7425 120 c-17 -7 -16 -9 10 -9 17 0 37 4 45 9 12 8 10 10 -10 9 -14
0 -34 -4 -45 -9z"/>
<path d="M6445 82 c-32 -6 -39 -19 -15 -27 22 -7 45 6 39 22 -2 5 -13 7 -24 5z"/>
<path d="M6345 20 c3 -5 15 -10 26 -10 10 0 19 5 19 10 0 6 -12 10 -26 10 -14
0 -23 -4 -19 -10z"/>
</g>
</svg>
